<svg xmlns="http://www.w3.org/2000/svg" width="18" height="18" viewBox="0 0 18 18">
  <g id="添加指标" transform="translate(-280.354 -180.884)">
    <rect id="矩形_123" data-name="矩形 123" width="18" height="18" transform="translate(280.354 180.884)" fill="none"/>
    <g id="组_3851" data-name="组 3851" transform="translate(-0.852 -0.852)">
      <path id="椭圆_193" data-name="椭圆 193" d="M7-.75A7.753,7.753,0,1,1-.75,7,7.761,7.761,0,0,1,7-.75ZM7,13.255A6.253,6.253,0,1,0,.75,7,6.26,6.26,0,0,0,7,13.255Z" transform="translate(283.203 183.676)" />
      <path id="直线_870" data-name="直线 870" d="M7,.75H0A.75.75,0,0,1-.75,0,.75.75,0,0,1,0-.75H7a.75.75,0,0,1,.75.75A.75.75,0,0,1,7,.75Z" transform="translate(286.704 190.678)" />
      <path id="直线_871" data-name="直线 871" d="M0,7.753A.75.75,0,0,1-.75,7V0A.75.75,0,0,1,0-.75.75.75,0,0,1,.75,0V7A.75.75,0,0,1,0,7.753Z" transform="translate(290.206 187.176)" />
    </g>
  </g>
</svg>
