<svg xmlns="http://www.w3.org/2000/svg" width="15.889" height="15.889" viewBox="0 0 15.889 15.889">
  <g id="使用报表" transform="translate(-36.288 -213.102)">
    <path id="路径_681" data-name="路径 681" d="M37.038,213.1h9.694a.75.75,0,0,1,.492.184l4.7,4.087a.75.75,0,0,1,.258.566v10.3a.75.75,0,0,1-.75.75H37.038a.75.75,0,0,1-.75-.75V213.852A.75.75,0,0,1,37.038,213.1Zm9.413,1.5H37.788v12.889H50.677V218.28Z" />
    <path id="路径_682" data-name="路径 682" d="M51.427,218.688h-4.7a.75.75,0,0,1-.75-.75v-4.087a.75.75,0,0,1,1.5,0v3.337h3.946a.75.75,0,1,1,0,1.5Z" />
    <path id="直线_864" data-name="直线 864" d="M0,6.8a.75.75,0,0,1-.75-.75V0A.75.75,0,0,1,0-.75.75.75,0,0,1,.75,0V6.046A.75.75,0,0,1,0,6.8Z" transform="translate(40.926 217.016)" />
    <path id="直线_865" data-name="直线 865" d="M7.818.75H0A.75.75,0,0,1-.75,0,.75.75,0,0,1,0-.75H7.818a.75.75,0,0,1,.75.75A.75.75,0,0,1,7.818.75Z" transform="translate(40.324 225.57)" />
    <path id="直线_866" data-name="直线 866" d="M0,3.423a.75.75,0,0,1-.75-.75V0A.75.75,0,0,1,0-.75.75.75,0,0,1,.75,0V2.673A.75.75,0,0,1,0,3.423Z" transform="translate(44.272 220.389)" />
    <path id="直线_867" data-name="直线 867" d="M0,1.929a.75.75,0,0,1-.75-.75V0A.75.75,0,0,1,0-.75.75.75,0,0,1,.75,0V1.179A.75.75,0,0,1,0,1.929Z" transform="translate(47.457 221.883)" />
  </g>
</svg>
