<svg xmlns="http://www.w3.org/2000/svg" width="16" height="16" viewBox="0 0 16 16">
  <g id="分组项" transform="translate(-343.326 -67.089)">
    <rect id="矩形_123" data-name="矩形 123" width="16" height="16" transform="translate(343.326 67.089)" fill="none"/>
    <g id="组_3868" data-name="组 3868">
      <path id="路径_694" data-name="路径 694" d="M351.322,76.641a.749.749,0,0,1-.358-.091l-1.4-.76-5.821-3.171a.75.75,0,0,1,0-1.315l7.22-3.98a.75.75,0,0,1,.724,0l7.23,3.98a.75.75,0,0,1,0,1.316l-2.88,1.57-4.351,2.361A.75.75,0,0,1,351.322,76.641Zm-5.66-4.684,5.66,3.08,3.992-2.166,1.677-.914-5.669-3.12Z" />
      <path id="路径_695" data-name="路径 695" d="M346.981,72.781a.75.75,0,0,1,.359.091l3.982,2.165,3.992-2.166a.75.75,0,0,1,.718,0l2.88,1.58a.75.75,0,0,1,0,1.317l-2.95,1.6L351.68,79.7a.75.75,0,0,1-.718,0l-4.27-2.33-2.948-1.6a.75.75,0,0,1,0-1.317l2.88-1.58A.75.75,0,0,1,346.981,72.781Zm10,2.326-1.316-.722-3.99,2.165a.75.75,0,0,1-.716,0l-1.4-.76-2.581-1.4-1.315.722,1.741.944,3.913,2.135,3.921-2.135Z" />
      <path id="路径_696" data-name="路径 696" d="M347.052,75.961a.749.749,0,0,1,.359.092l3.911,2.134,3.921-2.135a.75.75,0,0,1,.721,0l2.95,1.63a.75.75,0,0,1,0,1.315l-7.23,3.93a.75.75,0,0,1-.717,0L343.743,79a.75.75,0,0,1,0-1.315l2.95-1.63A.75.75,0,0,1,347.052,75.961Zm9.939,2.375-1.392-.769L351.68,79.7a.75.75,0,0,1-.718,0l-3.909-2.133-1.393.769,5.661,3.081Z" />
    </g>
  </g>
</svg>
