<svg xmlns="http://www.w3.org/2000/svg" width="16" height="16.028" viewBox="0 0 16 16.028">
  <g id="分析指标" transform="translate(-547.822 -27.228)">
    <rect id="矩形_122" data-name="矩形 122" width="16" height="16" transform="translate(547.822 27.256)" fill="#fff"/>
    <g id="组_3786" data-name="组 3786">
      <path id="路径_684" data-name="路径 684" d="M563.057,43.193H548.593a.75.75,0,0,1-.75-.75V40.519a.75.75,0,0,1,1.5,0v1.174h12.964V28.728H549.343v5.5a.75.75,0,0,1-1.5,0V27.978a.75.75,0,0,1,.75-.75h14.464a.75.75,0,0,1,.75.75V42.443A.75.75,0,0,1,563.057,43.193Z" />
      <path id="路径_685" data-name="路径 685" d="M554.287,38.687a.75.75,0,0,1-.53-.22L551.38,36.09l-2.257,2.257a.75.75,0,0,1-1.061-1.061l2.787-2.787a.75.75,0,0,1,1.061,0l2.377,2.377,3.089-3.089a.75.75,0,0,1,1.061,1.061l-3.62,3.62A.75.75,0,0,1,554.287,38.687Z" />
      <path id="路径_686" data-name="路径 686" d="M560.249,31.265a.75.75,0,0,1,.724.944l-.925,3.45a.75.75,0,0,1-1.255.336l-2.526-2.526a.75.75,0,0,1,.336-1.255l3.45-.925A.749.749,0,0,1,560.249,31.265Zm-1.313,2.752.252-.941-.941.252Z" />
    </g>
  </g>
</svg>
