<svg xmlns="http://www.w3.org/2000/svg" width="17.996" height="17.996" viewBox="0 0 17.996 17.996">
  <g id="应用接入" transform="translate(-1530 -266)">
    <rect id="矩形_128" data-name="矩形 128" width="17.996" height="17.996" transform="translate(1530 266)" fill="none"/>
    <rect id="矩形_129" data-name="矩形 129" width="14.397" height="14.397" transform="translate(1531.8 267.8)" fill="none"/>
    <g id="组_291" data-name="组 291" transform="translate(1532.279 268.699)">
      <path id="矩形_139" data-name="矩形 139" d="M0-.75H4.6a.75.75,0,0,1,.75.75V2.748a.75.75,0,0,1-.75.75H0a.75.75,0,0,1-.75-.75V0A.75.75,0,0,1,0-.75ZM3.849.75H.75V2h3.1Z" transform="translate(4.357 -0.635)" />
      <path id="矩形_140" data-name="矩形 140" d="M0-.75H4.6a.75.75,0,0,1,.75.75V2.748a.75.75,0,0,1-.75.75H0a.75.75,0,0,1-.75-.75V0A.75.75,0,0,1,0-.75ZM3.849.75H.75V2h3.1Z" transform="translate(4.357 4.74)" />
      <path id="矩形_141" data-name="矩形 141" d="M0-.75H4.6a.75.75,0,0,1,.75.75V2.748a.75.75,0,0,1-.75.75H0a.75.75,0,0,1-.75-.75V0A.75.75,0,0,1,0-.75ZM3.849.75H.75V2h3.1Z" transform="translate(4.357 10.114)" />
      <path id="路径_51" data-name="路径 51" d="M913.985,176.438H911.51a.75.75,0,0,1,0-1.5h1.726v-3.8h-2.541a.75.75,0,0,1,0-1.5h3.291a.75.75,0,0,1,.75.75v5.3A.75.75,0,0,1,913.985,176.438Z" transform="translate(-900.547 -169.575)" />
      <path id="路径_52" data-name="路径 52" d="M901.885,181.681h-2.468a.75.75,0,0,1-.75-.75v-5.375a.75.75,0,0,1,.75-.75h3.291a.75.75,0,0,1,0,1.5h-2.541v3.875h1.718a.75.75,0,0,1,0,1.5Z" transform="translate(-899.417 -169.444)" />
      <path id="路径_53" data-name="路径 53" d="M910.13,175.8l1.731,1.352a.109.109,0,0,0,.175-.085v-2.7a.108.108,0,0,0-.175-.085l-1.731,1.352A.107.107,0,0,0,910.13,175.8Z" transform="translate(-900.678 -169.601)" />
      <path id="路径_54" data-name="路径 54" d="M903.758,180.946l-1.728,1.35a.113.113,0,0,1-.181-.089v-2.7a.112.112,0,0,1,.181-.089l1.728,1.35A.112.112,0,0,1,903.758,180.946Z" transform="translate(-899.856 -169.371)" />
    </g>
  </g>
</svg>
