<svg xmlns="http://www.w3.org/2000/svg" width="18" height="18" viewBox="0 0 18 18">
  <g id="应用管理" transform="translate(-441.031 -73.669)">
    <rect id="矩形_122" data-name="矩形 122" width="18" height="18" transform="translate(441.031 73.669)" fill="none"/>
    <path id="矩形_1093" data-name="矩形 1093" d="M0-.75H5.164a.75.75,0,0,1,.75.75V5.164a.75.75,0,0,1-.75.75H0a.75.75,0,0,1-.75-.75V0A.75.75,0,0,1,0-.75ZM4.414.75H.75V4.414H4.414Z" transform="translate(443.537 76.669)" />
    <path id="矩形_1094" data-name="矩形 1094" d="M0-.75H5.164a.75.75,0,0,1,.75.75V5.164a.75.75,0,0,1-.75.75H0a.75.75,0,0,1-.75-.75V0A.75.75,0,0,1,0-.75ZM4.414.75H.75V4.414H4.414Z" transform="translate(443.537 84.498)" />
    <path id="矩形_1095" data-name="矩形 1095" d="M0-.75H5.164a.75.75,0,0,1,.75.75V5.164a.75.75,0,0,1-.75.75H0a.75.75,0,0,1-.75-.75V0A.75.75,0,0,1,0-.75ZM4.414.75H.75V4.414H4.414Z" transform="translate(451.346 84.498)" />
    <path id="矩形_1096" data-name="矩形 1096" d="M0-.75H5.164a.75.75,0,0,1,.75.75V5.164a.75.75,0,0,1-.75.75H0a.75.75,0,0,1-.75-.75V0A.75.75,0,0,1,0-.75ZM4.414.75H.75V4.414H4.414Z" transform="translate(454.162 75.6) rotate(45)" />
  </g>
</svg>
