<?xml version="1.0" encoding="UTF-8"?>
<svg id="_图层_2" data-name="图层 2" xmlns="http://www.w3.org/2000/svg" width="16" height="16" viewBox="0 0 16 16">
  <defs>
    <style>
      .cls-1, .cls-2 {
        stroke-width: 0px;
      }

      .cls-2 {
        opacity: 0;
      }
    </style>
  </defs>
  <g id="_图层_1-2" data-name="图层 1">
    <g>
      <rect id="_矩形_122" data-name="矩形 122" class="cls-2" width="16" height="16"/>
      <path class="cls-1" d="M8.000148,14.023857c-.086426,0-.172852-.022461-.25-.066895l-4.783691-2.762207c-.154785-.089355-.25-.254395-.25-.433105v-5.523438c0-.178711.095215-.34375.25-.433105l4.783691-2.762207c.154297-.088867.345703-.088867.5,0l4.783691,2.762207c.154785.089355.25.254395.25.433105v5.523438c0,.178711-.095215.34375-.25.433105l-4.783691,2.762207c-.077148.044434-.163574.066895-.25.066895ZM3.716456,10.473076l4.283691,2.473633,4.283691-2.473633v-4.946289l-4.283691-2.473633-4.283691,2.473633v4.946289Z"/>
      <path class="cls-1" d="M11.070094,6.269707c-.138062-.239136-.443909-.321106-.683044-.183044l-2.346008,1.354553-2.346069-1.354553c-.239136-.138062-.544922-.056091-.682983.183044s-.056152.544922.182983.682983l2.340149,1.351074v2.712219c0,.276184.223877.5.5.5.276184,0,.5-.223816.5-.5v-2.705383l2.351929-1.35791c.239136-.138062.321106-.443848.183044-.682983Z"/>
    </g>
  </g>
</svg>
