<svg id="异步导出" xmlns="http://www.w3.org/2000/svg" width="18" height="18" viewBox="0 0 18 18">
  <rect id="矩形_122" data-name="矩形 122" width="18" height="18" fill="none"/>
  <path id="路径_205" data-name="路径 205" d="M68.533,261.4H62.342a.75.75,0,0,1-.75-.75V248.269a.75.75,0,0,1,.75-.75h6.191a.75.75,0,0,1,0,1.5H63.092V259.9h5.441a.75.75,0,0,1,0,1.5Z" transform="translate(-59.534 -245.46)" />
  <path id="路径_206" data-name="路径 206" d="M71.631,258.306a.75.75,0,0,1-.53-1.28l2.566-2.566L71.1,251.894a.75.75,0,0,1,1.061-1.061l3.1,3.1a.75.75,0,0,1,0,1.061l-3.1,3.1A.748.748,0,0,1,71.631,258.306Z" transform="translate(-59.534 -245.46)" />
  <path id="路径_207" data-name="路径 207" d="M74.727,255.211H65.783a.75.75,0,0,1,0-1.5h8.944a.75.75,0,0,1,0,1.5Z" transform="translate(-59.534 -245.46)" />
</svg>
