<svg xmlns="http://www.w3.org/2000/svg" width="18" height="18" viewBox="0 0 18 18">
  <g id="分组项Z_A" data-name="分组项Z→A" transform="translate(-256.255 -384.228)">
    <rect id="矩形_122" data-name="矩形 122" width="18" height="18" transform="translate(256.255 384.228)" fill="none"/>
    <g id="组_4908" data-name="组 4908">
      <rect id="矩形_122-2" data-name="矩形 122" width="16" height="16" transform="translate(257.255 385.228)" fill="none"/>
      <g id="组_4514" data-name="组 4514">
        <path id="直线_1042" data-name="直线 1042" d="M0,12.462a.75.75,0,0,1-.75-.75V0A.75.75,0,0,1,0-.75.75.75,0,0,1,.75,0V11.712A.75.75,0,0,1,0,12.462Z" transform="translate(261.149 387.037)" />
        <path id="路径_790" data-name="路径 790" d="M261.154,400.2a.748.748,0,0,1-.53-.22l-2.069-2.069a.75.75,0,0,1,1.061-1.061l1.539,1.539,1.528-1.528a.75.75,0,0,1,1.061,1.061l-2.058,2.058A.748.748,0,0,1,261.154,400.2Z" />
        <g id="组_4512" data-name="组 4512">
          <path id="直线_1043" data-name="直线 1043" d="M0,5.821a.748.748,0,0,1-.287-.057.75.75,0,0,1-.405-.98l2.1-5.071a.75.75,0,0,1,.98-.405A.75.75,0,0,1,2.8.287L.693,5.358A.75.75,0,0,1,0,5.821Z" transform="translate(265.885 394.098)" />
          <path id="直线_1044" data-name="直线 1044" d="M2.1,5.821a.75.75,0,0,1-.693-.463L-.693.287a.75.75,0,0,1,.405-.98.75.75,0,0,1,.98.405L2.8,4.784A.75.75,0,0,1,2.1,5.821Z" transform="translate(268.051 394.098)" />
          <path id="直线_1045" data-name="直线 1045" d="M2.448.75H0A.75.75,0,0,1-.75,0,.75.75,0,0,1,0-.75H2.448A.75.75,0,0,1,3.2,0,.75.75,0,0,1,2.448.75Z" transform="translate(266.82 397.952)" />
        </g>
        <g id="组_4513" data-name="组 4513">
          <path id="直线_1046" data-name="直线 1046" d="M4.015.75H0A.75.75,0,0,1-.75,0,.75.75,0,0,1,0-.75H4.015a.75.75,0,0,1,.75.75A.75.75,0,0,1,4.015.75Z" transform="translate(266.071 387.541)" />
          <path id="直线_1047" data-name="直线 1047" d="M0,4.567a.748.748,0,0,1-.559-.25A.75.75,0,0,1-.5,3.258L3.769-.559A.75.75,0,0,1,4.828-.5.75.75,0,0,1,4.769.559L.5,4.376A.747.747,0,0,1,0,4.567Z" transform="translate(265.916 387.541)" />
          <path id="直线_1048" data-name="直线 1048" d="M4.119.75H0A.75.75,0,0,1-.75,0,.75.75,0,0,1,0-.75H4.119a.75.75,0,0,1,.75.75A.75.75,0,0,1,4.119.75Z" transform="translate(265.967 391.379)" />
        </g>
      </g>
    </g>
  </g>
</svg>
