<svg xmlns="http://www.w3.org/2000/svg" width="18" height="18" viewBox="0 0 18 18">
  <g id="分组项A_Z" data-name="分组项A→Z" transform="translate(-234.403 -384.228)">
    <rect id="矩形_122" data-name="矩形 122" width="18" height="18" transform="translate(234.403 384.228)" fill="none"/>
    <g id="组_4907" data-name="组 4907">
      <rect id="矩形_122-2" data-name="矩形 122" width="16" height="16" transform="translate(235.403 385.228)" fill="none"/>
      <g id="组_4509" data-name="组 4509">
        <path id="直线_1035" data-name="直线 1035" d="M0,12.462a.75.75,0,0,1-.75-.75V0A.75.75,0,0,1,0-.75.75.75,0,0,1,.75,0V11.712A.75.75,0,0,1,0,12.462Z" transform="translate(239.297 387.037)" />
        <path id="直线_1036" data-name="直线 1036" d="M0,5.821a.748.748,0,0,1-.287-.057.75.75,0,0,1-.405-.98l2.1-5.071a.75.75,0,0,1,.98-.405A.75.75,0,0,1,2.8.287L.693,5.358A.75.75,0,0,1,0,5.821Z" transform="translate(244.064 387.281)" />
        <path id="直线_1037" data-name="直线 1037" d="M2.1,5.821a.75.75,0,0,1-.693-.463L-.693.287a.75.75,0,0,1,.405-.98.75.75,0,0,1,.98.405L2.8,4.784A.75.75,0,0,1,2.1,5.821Z" transform="translate(246.23 387.281)" />
        <path id="路径_789" data-name="路径 789" d="M239.3,400.2a.75.75,0,0,1-.53-.22l-2.069-2.069a.75.75,0,0,1,1.061-1.061l1.539,1.539,1.528-1.528a.75.75,0,0,1,1.061,1.061l-2.058,2.058A.75.75,0,0,1,239.3,400.2Z" />
        <path id="直线_1038" data-name="直线 1038" d="M2.448.75H0A.75.75,0,0,1-.75,0,.75.75,0,0,1,0-.75H2.448A.75.75,0,0,1,3.2,0,.75.75,0,0,1,2.448.75Z" transform="translate(244.999 391.136)" />
        <path id="直线_1039" data-name="直线 1039" d="M4.015.75H0A.75.75,0,0,1-.75,0,.75.75,0,0,1,0-.75H4.015a.75.75,0,0,1,.75.75A.75.75,0,0,1,4.015.75Z" transform="translate(244.22 395.352)" />
        <path id="直线_1040" data-name="直线 1040" d="M0,4.567a.748.748,0,0,1-.559-.25A.75.75,0,0,1-.5,3.258L3.769-.559A.75.75,0,0,1,4.828-.5.75.75,0,0,1,4.769.559L.5,4.376A.747.747,0,0,1,0,4.567Z" transform="translate(244.064 395.352)" />
        <path id="直线_1041" data-name="直线 1041" d="M4.119.75H0A.75.75,0,0,1-.75,0,.75.75,0,0,1,0-.75H4.119a.75.75,0,0,1,.75.75A.75.75,0,0,1,4.119.75Z" transform="translate(244.115 399.19)" />
      </g>
    </g>
  </g>
</svg>
