<svg xmlns="http://www.w3.org/2000/svg" width="18" height="18" viewBox="0 0 18 18">
  <g id="埋点管理11" transform="translate(0 -0.132)">
    <rect id="矩形_5" data-name="矩形 5" width="18" height="18" transform="translate(0 0.132)" fill="none"/>
    <g id="组_250" data-name="组 250" transform="translate(-649.588 -379.263)">
      <path id="路径_23" data-name="路径 23" d="M658.588,396.033c-3.841,0-6.849-1.833-6.849-4.174s3.008-4.173,6.849-4.173a.75.75,0,0,1,0,1.5,8.218,8.218,0,0,0-3.945.906c-.892.5-1.4,1.144-1.4,1.766s.512,1.266,1.4,1.767a9.036,9.036,0,0,0,7.891,0c.892-.5,1.4-1.145,1.4-1.767,0-.973-1.214-1.934-3.021-2.393a.75.75,0,1,1,.369-1.454,7.181,7.181,0,0,1,2.888,1.4,3.223,3.223,0,0,1,1.263,2.449C665.437,394.2,662.429,396.033,658.588,396.033Z" transform="translate(0 -0.456)" />
      <path id="路径_24" data-name="路径 24" d="M658.588,393.391a5.091,5.091,0,0,1-2.209-.462,1.67,1.67,0,0,1,0-3.2,5.089,5.089,0,0,1,2.209-.463.75.75,0,0,1,0,1.5,2.564,2.564,0,0,0-1.9.564,3.472,3.472,0,0,0,3.79,0,1.016,1.016,0,0,0-.412-.287.75.75,0,1,1,.62-1.366,1.907,1.907,0,0,1,1.3,1.652,1.8,1.8,0,0,1-1.195,1.6A5.091,5.091,0,0,1,658.588,393.391Z" />
      <path id="直线_30" data-name="直线 30" d="M0,4.54a.75.75,0,0,1-.75-.75V0A.75.75,0,0,1,0-.75.75.75,0,0,1,.75,0V3.79A.75.75,0,0,1,0,4.54Z" transform="translate(658.588 386.085)" />
      <path id="椭圆_22" data-name="椭圆 22" d="M1.992-.75A2.742,2.742,0,1,1-.75,1.992,2.745,2.745,0,0,1,1.992-.75Zm0,3.984A1.242,1.242,0,1,0,.75,1.992,1.244,1.244,0,0,0,1.992,3.234Z" transform="translate(656.616 381.964)" />
    </g>
  </g>
</svg>
