<svg xmlns="http://www.w3.org/2000/svg" width="16" height="16" viewBox="0 0 16 16">
  <g id="盒须图" transform="translate(-121.64 -385.228)">
    <rect id="矩形_122" data-name="矩形 122" width="16" height="16" transform="translate(121.64 385.228)" fill="none"/>
    <path id="直线_1057" data-name="直线 1057" d="M0,2.741a.75.75,0,0,1-.75-.75V0A.75.75,0,0,1,0-.75.75.75,0,0,1,.75,0V1.991A.75.75,0,0,1,0,2.741Z" transform="translate(125.593 387.019)" />
    <path id="直线_1058" data-name="直线 1058" d="M0,2.741a.75.75,0,0,1-.75-.75V0A.75.75,0,0,1,0-.75.75.75,0,0,1,.75,0V1.991A.75.75,0,0,1,0,2.741Z" transform="translate(125.593 397.455)" />
    <path id="直线_1059" data-name="直线 1059" d="M0,2.886a.75.75,0,0,1-.75-.75V0A.75.75,0,0,1,0-.75.75.75,0,0,1,.75,0V2.136A.75.75,0,0,1,0,2.886Z" transform="translate(133.593 397.383)" />
    <path id="直线_1060" data-name="直线 1060" d="M0,2.886a.75.75,0,0,1-.75-.75V0A.75.75,0,0,1,0-.75.75.75,0,0,1,.75,0V2.136A.75.75,0,0,1,0,2.886Z" transform="translate(133.593 386.946)" />
    <path id="矩形_1354" data-name="矩形 1354" d="M0-.75H4.333a.75.75,0,0,1,.75.75V7.669a.75.75,0,0,1-.75.75H0a.75.75,0,0,1-.75-.75V0A.75.75,0,0,1,0-.75ZM3.583.75H.75V6.919H3.583Z" transform="translate(131.426 389.46)" />
    <path id="矩形_1355" data-name="矩形 1355" d="M0-.75H4.333a.75.75,0,0,1,.75.75V7.669a.75.75,0,0,1-.75.75H0a.75.75,0,0,1-.75-.75V0A.75.75,0,0,1,0-.75ZM3.583.75H.75V6.919H3.583Z" transform="translate(123.426 389.46)" />
  </g>
</svg>
