<svg xmlns="http://www.w3.org/2000/svg" width="18" height="18" viewBox="0 0 18 18">
  <g id="数据表" transform="translate(0 -0.132)">
    <rect id="矩形_5" data-name="矩形 5" width="18" height="18" transform="translate(0 0.132)" fill="none"/>
    <rect id="矩形_4" data-name="矩形 4" width="14" height="14" transform="translate(2 2.132)" fill="none"/>
    <g id="组_348" data-name="组 348" transform="translate(-582.475 -187.188)">
      <path id="矩形_155" data-name="矩形 155" d="M1-.75H11.831A1.752,1.752,0,0,1,13.581,1V11.831a1.752,1.752,0,0,1-1.75,1.75H1a1.752,1.752,0,0,1-1.75-1.75V1A1.752,1.752,0,0,1,1-.75ZM11.831,12.081a.25.25,0,0,0,.25-.25V1a.25.25,0,0,0-.25-.25H1A.25.25,0,0,0,.75,1V11.831a.25.25,0,0,0,.25.25Z" transform="translate(585.059 189.905)" />
      <path id="直线_70" data-name="直线 70" d="M12.831.75H0A.75.75,0,0,1-.75,0,.75.75,0,0,1,0-.75H12.831a.75.75,0,0,1,.75.75A.75.75,0,0,1,12.831.75Z" transform="translate(585.059 193.222)" />
      <path id="直线_71" data-name="直线 71" d="M12.831.75H0A.75.75,0,0,1-.75,0,.75.75,0,0,1,0-.75H12.831a.75.75,0,0,1,.75.75A.75.75,0,0,1,12.831.75Z" transform="translate(585.059 197.963)" />
      <path id="直线_72" data-name="直线 72" d="M0,10.263a.75.75,0,0,1-.75-.75V0A.75.75,0,0,1,0-.75.75.75,0,0,1,.75,0V9.513A.75.75,0,0,1,0,10.263Z" transform="translate(589.475 193.222)" />
      <path id="直线_73" data-name="直线 73" d="M0,10.263a.75.75,0,0,1-.75-.75V0A.75.75,0,0,1,0-.75.75.75,0,0,1,.75,0V9.513A.75.75,0,0,1,0,10.263Z" transform="translate(593.741 193.222)" />
    </g>
  </g>
</svg>
