<svg xmlns="http://www.w3.org/2000/svg" width="18" height="18" viewBox="0 0 18 18">
  <g id="累计图" transform="translate(0 -0.132)">
    <rect id="矩形_5" data-name="矩形 5" width="18" height="18" transform="translate(0 0.132)" fill="none"/>
    <rect id="矩形_4" data-name="矩形 4" width="14" height="14" transform="translate(2 2.132)" fill="none"/>
    <g id="组_442" data-name="组 442" transform="translate(-120.624 -181.84)">
      <path id="路径_132" data-name="路径 132" d="M136.116,198.2H123.132a.75.75,0,0,1-.75-.75V184.5a.75.75,0,0,1,1.5,0v12.2h12.234a.75.75,0,0,1,0,1.5Z" />
      <path id="路径_133" data-name="路径 133" d="M125.237,193.565a.75.75,0,0,1-.6-1.2l3.318-4.444a.75.75,0,0,1,.866-.253l2.81,1.062,3.569-4.686a.75.75,0,1,1,1.193.909l-3.907,5.131a.75.75,0,0,1-.862.247l-2.805-1.06-2.98,3.992A.749.749,0,0,1,125.237,193.565Z" />
      <path id="路径_134" data-name="路径 134" d="M126.111,195.861a.75.75,0,0,1-.526-1.285l2.333-2.3a.75.75,0,0,1,.892-.12l3.276,1.831,2.525-2.589a.75.75,0,0,1,1.074,1.047l-2.926,3a.75.75,0,0,1-.9.131l-3.287-1.837-1.932,1.9A.748.748,0,0,1,126.111,195.861Z" />
    </g>
  </g>
</svg>
