<svg xmlns="http://www.w3.org/2000/svg" width="18" height="18" viewBox="0 0 18 18">
  <g id="分布图" transform="translate(-143.33 -384.228)">
    <rect id="矩形_122" data-name="矩形 122" width="18" height="18" transform="translate(143.33 384.228)" fill="none"/>
    <g id="组_4575" data-name="组 4575">
      <path id="直线_1013" data-name="直线 1013" d="M12.967.75H0A.75.75,0,0,1-.75,0,.75.75,0,0,1,0-.75H12.967a.75.75,0,0,1,.75.75A.75.75,0,0,1,12.967.75Z" transform="translate(145.776 399.714)" />
      <path id="路径_772" data-name="路径 772" d="M147.248,392.141a.75.75,0,0,1-.451-1.35l3.346-2.511a.75.75,0,0,1,.863-.027l3.13,2.06,3.186-3.056a.75.75,0,1,1,1.038,1.082l-3.617,3.47a.75.75,0,0,1-.932.085l-3.189-2.1-2.924,2.194A.747.747,0,0,1,147.248,392.141Z" />
      <path id="路径_773" data-name="路径 773" d="M158.556,390.344a.75.75,0,0,1-.75-.75v-1.9h-1.917a.75.75,0,1,1,0-1.5h2.667a.75.75,0,0,1,.75.75v2.653A.75.75,0,0,1,158.556,390.344Z" />
      <path id="直线_1014" data-name="直线 1014" d="M0,4.411a.75.75,0,0,1-.75-.75V0A.75.75,0,0,1,0-.75.75.75,0,0,1,.75,0V3.661A.75.75,0,0,1,0,4.411Z" transform="translate(147.247 393.722)" />
      <path id="直线_1015" data-name="直线 1015" d="M0,5.985a.75.75,0,0,1-.75-.75V0A.75.75,0,0,1,0-.75.75.75,0,0,1,.75,0V5.235A.75.75,0,0,1,0,5.985Z" transform="translate(150.593 392.148)" />
      <path id="直线_1016" data-name="直线 1016" d="M0,3.474a.75.75,0,0,1-.75-.75V0A.75.75,0,0,1,0-.75.75.75,0,0,1,.75,0V2.724A.75.75,0,0,1,0,3.474Z" transform="translate(154.222 394.659)" />
      <path id="直线_1017" data-name="直线 1017" d="M0,5.985a.75.75,0,0,1-.75-.75V0A.75.75,0,0,1,0-.75.75.75,0,0,1,.75,0V5.235A.75.75,0,0,1,0,5.985Z" transform="translate(157.84 392.148)" />
    </g>
  </g>
</svg>
