<svg xmlns="http://www.w3.org/2000/svg" width="18" height="18" viewBox="0 0 18 18">
  <g id="柱状堆叠图" transform="translate(1.776 1.811)">
    <rect id="矩形_123" data-name="矩形 123" width="18" height="18" transform="translate(-1.776 -1.811)" fill="none"/>
    <path id="直线_68" data-name="直线 68" d="M14.37.75H0A.75.75,0,0,1-.75,0,.75.75,0,0,1,0-.75H14.37a.75.75,0,0,1,.75.75A.75.75,0,0,1,14.37.75Z" transform="translate(0.038 14.378)" />
    <path id="矩形_146" data-name="矩形 146" d="M0-.75H2.982a.75.75,0,0,1,.75.75V10.637a.75.75,0,0,1-.75.75H0a.75.75,0,0,1-.75-.75V0A.75.75,0,0,1,0-.75ZM2.232.75H.75V9.887H2.232Z" />
    <path id="矩形_147" data-name="矩形 147" d="M0-.75H2.982a.75.75,0,0,1,.75.75V3.979a.75.75,0,0,1-.75.75H0a.75.75,0,0,1-.75-.75V0A.75.75,0,0,1,0-.75ZM2.232.75H.75V3.229H2.232Z" />
    <path id="矩形_146-2" data-name="矩形 146" d="M0-.75H2.982a.75.75,0,0,1,.75.75V10.637a.75.75,0,0,1-.75.75H0a.75.75,0,0,1-.75-.75V0A.75.75,0,0,1,0-.75ZM2.232.75H.75V9.887H2.232Z" transform="translate(5.741)" />
    <path id="矩形_147-2" data-name="矩形 147" d="M0-.75H2.982a.75.75,0,0,1,.75.75V3.979a.75.75,0,0,1-.75.75H0a.75.75,0,0,1-.75-.75V0A.75.75,0,0,1,0-.75ZM2.232.75H.75V3.229H2.232Z" transform="translate(5.741)" />
    <path id="矩形_146-3" data-name="矩形 146" d="M0-.75H2.982a.75.75,0,0,1,.75.75V10.637a.75.75,0,0,1-.75.75H0a.75.75,0,0,1-.75-.75V0A.75.75,0,0,1,0-.75ZM2.232.75H.75V9.887H2.232Z" transform="translate(11.482)" />
    <path id="矩形_147-3" data-name="矩形 147" d="M0-.75H2.982a.75.75,0,0,1,.75.75V3.979a.75.75,0,0,1-.75.75H0a.75.75,0,0,1-.75-.75V0A.75.75,0,0,1,0-.75ZM2.232.75H.75V3.229H2.232Z" transform="translate(11.482)" />
  </g>
</svg>
