<svg xmlns="http://www.w3.org/2000/svg" width="18" height="18" viewBox="0 0 18 18">
  <g id="堆积图" transform="translate(0 -0.132)">
    <rect id="矩形_5" data-name="矩形 5" width="18" height="18" transform="translate(0 0.132)" fill="none"/>
    <g id="组_343" data-name="组 343" transform="translate(-501.584 -159.423)">
      <path id="直线_66" data-name="直线 66" d="M12.967.75H0A.75.75,0,0,1-.75,0,.75.75,0,0,1,0-.75H12.967a.75.75,0,0,1,.75.75A.75.75,0,0,1,12.967.75Z" transform="translate(504.1 175.042)" />
      <path id="路径_104" data-name="路径 104" d="M513.7,161.318a.749.749,0,0,1,.425.132l2.561,1.761a.75.75,0,0,1,.325.618v7.837a.75.75,0,0,1-.75.75H504.909a.75.75,0,0,1-.75-.75V165.59a.75.75,0,0,1,.216-.527l2.78-2.816a.75.75,0,0,1,.992-.066l2.171,1.677,2.906-2.371A.749.749,0,0,1,513.7,161.318Zm1.811,2.905-1.772-1.219L510.8,165.4a.75.75,0,0,1-.933.012l-2.116-1.635-2.1,2.124v5.018h9.851Z" />
      <path id="路径_105" data-name="路径 105" d="M516.259,172.417H504.909a.75.75,0,0,1-.75-.75v-2.609a.75.75,0,0,1,.216-.527l2.78-2.816a.75.75,0,0,1,.992-.066l2.171,1.677,2.906-2.371a.75.75,0,0,1,.9-.037l2.561,1.761a.75.75,0,0,1,.325.618v4.37A.75.75,0,0,1,516.259,172.417Zm-10.6-1.5h9.851v-3.226l-1.772-1.219-2.932,2.392a.75.75,0,0,1-.933.012l-2.116-1.635-2.1,2.124Z" />
    </g>
  </g>
</svg>
