<svg xmlns="http://www.w3.org/2000/svg" width="16.164" height="16" viewBox="0 0 16.164 16">
  <g id="收藏11" transform="translate(-513.858 -27.042)">
    <rect id="矩形_122" data-name="矩形 122" width="16" height="16" rx="2" transform="translate(513.939 27.042)" fill="none"/>
    <path id="收藏" d="M521.942,27.262a1.215,1.215,0,0,1,1.1.7l1.738,3.734,4.025-.01a1.214,1.214,0,0,1,.9,2.031l-3.136,3.446.809,4.144a1.214,1.214,0,0,1-1.78,1.3l-3.659-2.024-3.662,2.032a1.214,1.214,0,0,1-1.781-1.3l.81-4.143-3.135-3.446a1.213,1.213,0,0,1,.895-2.032h.01l4.02.01,1.735-3.728A1.214,1.214,0,0,1,521.942,27.262ZM524.6,33.2a1.219,1.219,0,0,1-1.1-.7l-1.555-3.342-1.56,3.352a1.227,1.227,0,0,1-1.1.7h-.006L515.72,33.2l2.8,3.073a1.224,1.224,0,0,1,.3,1.043v.006L518.089,41l3.263-1.811a1.214,1.214,0,0,1,1.18,0L525.79,41l-.72-3.685a1.219,1.219,0,0,1,.293-1.048l2.8-3.073Z"/>
  </g>
</svg>
