<svg xmlns="http://www.w3.org/2000/svg" width="28" height="28" viewBox="0 0 28 28">
    <g id="组_3400" data-name="组 3400" transform="translate(-223.815 -21.256)">
        <rect id="矩形_122" data-name="矩形 122" width="28" height="28" transform="translate(223.815 21.256)"
              fill="none"/>
        <path id="路径_656" data-name="路径 656"
              d="M237.815,26.935a.75.75,0,0,1,.375.1l6.557,3.786a.75.75,0,0,1,.375.65v7.571a.75.75,0,0,1-.375.65l-6.557,3.786a.75.75,0,0,1-.75,0l-6.557-3.786a.75.75,0,0,1-.375-.65V31.471a.75.75,0,0,1,.375-.65l6.557-3.786A.75.75,0,0,1,237.815,26.935Zm5.807,4.969-5.807-3.353L232.008,31.9v6.705l5.807,3.353,5.807-3.353Z"
              />
        <path id="椭圆_171" data-name="椭圆 171"
              d="M2.531-.75A3.281,3.281,0,1,1-.75,2.531,3.285,3.285,0,0,1,2.531-.75Zm0,5.063A1.781,1.781,0,1,0,.75,2.531,1.783,1.783,0,0,0,2.531,4.313Z"
              transform="translate(235.283 32.887)"/>
    </g>
</svg>
