<svg xmlns="http://www.w3.org/2000/svg" width="16.152" height="16.142" viewBox="0 0 16.152 16.142">
  <g id="组_3792" data-name="组 3792" transform="translate(-344.922 -26.935)">
    <path id="矩形_1176" data-name="矩形 1176" d="M0-.75H11.308a.75.75,0,0,1,.75.75V11.446a.75.75,0,0,1-.75.75H0a.75.75,0,0,1-.75-.75V0A.75.75,0,0,1,0-.75ZM10.558.75H.75V10.7h9.808Z" transform="translate(345.672 30.88)" />
    <path id="路径_688" data-name="路径 688" d="M360.324,40.5h-.873a.75.75,0,0,1,0-1.5h.123V28.435H349.154V28.6a.75.75,0,1,1-1.5,0v-.915a.75.75,0,0,1,.75-.75h11.921a.75.75,0,0,1,.75.75V39.752A.75.75,0,0,1,360.324,40.5Z" />
    <path id="直线_868" data-name="直线 868" d="M6.061.75H0A.75.75,0,0,1-.75,0,.75.75,0,0,1,0-.75H6.061a.75.75,0,0,1,.75.75A.75.75,0,0,1,6.061.75Z" transform="translate(348.303 34.393)" />
    <path id="直线_869" data-name="直线 869" d="M6.061.75H0A.75.75,0,0,1-.75,0,.75.75,0,0,1,0-.75H6.061a.75.75,0,0,1,.75.75A.75.75,0,0,1,6.061.75Z" transform="translate(348.303 38.318)" />
  </g>
</svg>
