<svg xmlns="http://www.w3.org/2000/svg" width="16" height="16" viewBox="0 0 16 16">
  <g id="组_2482" data-name="组 2482" transform="translate(-229.299 -127.967)">
    <rect id="矩形_122" data-name="矩形 122" width="16" height="16" transform="translate(229.299 127.967)" fill="none"/>
    <path id="矩形_123" data-name="矩形 123" d="M231.3,129.939h12v12h-12Z" fill="none"/>
    <path id="矩形_123-2" data-name="矩形 123" d="M231.3,132.019h9.627a.5.5,0,0,1,.5.5v9.627a.5.5,0,0,1-.5.5H231.3a.5.5,0,0,1-.5-.5v-9.627A.5.5,0,0,1,231.3,132.019Zm9.127,1H231.8v8.627h8.627Z" />
    <path id="矩形_123-3" data-name="矩形 123" d="M243.4,140.169h-2.476a.5.5,0,0,1,0-1H242.9v-8.627h-8.627v1.976a.5.5,0,0,1-1,0v-2.476a.5.5,0,0,1,.5-.5H243.4a.5.5,0,0,1,.5.5v9.627A.5.5,0,0,1,243.4,140.169Z" />
  </g>
</svg>
