<svg xmlns="http://www.w3.org/2000/svg" width="18" height="18" viewBox="0 0 18 18">
  <g id="组_3389" data-name="组 3389" transform="translate(-118.815 -96.923)">
    <rect id="矩形_122" data-name="矩形 122" width="18" height="18" transform="translate(118.815 96.923)" fill="none"/>
    <path id="矩形_1112" data-name="矩形 1112" d="M0-.75H10.03a.75.75,0,0,1,.75.75V10.153a.75.75,0,0,1-.75.75H0a.75.75,0,0,1-.75-.75V0A.75.75,0,0,1,0-.75ZM9.28.75H.75V9.4H9.28Z" transform="translate(121.315 102.227)" />
    <path id="路径_654" data-name="路径 654" d="M134.312,110.847h-.775a.75.75,0,0,1,0-1.5h.025v-9.2h-9.074v.061a.75.75,0,0,1-1.5,0v-.811a.75.75,0,0,1,.75-.75h10.574a.75.75,0,0,1,.75.75v10.7A.75.75,0,0,1,134.312,110.847Z" />
    <path id="直线_797" data-name="直线 797" d="M5.376.75H0A.75.75,0,0,1-.75,0,.75.75,0,0,1,0-.75H5.376a.75.75,0,0,1,.75.75A.75.75,0,0,1,5.376.75Z" transform="translate(123.648 105.343)"/>
    <path id="直线_798" data-name="直线 798" d="M5.376.75H0A.75.75,0,0,1-.75,0,.75.75,0,0,1,0-.75H5.376a.75.75,0,0,1,.75.75A.75.75,0,0,1,5.376.75Z" transform="translate(123.648 108.825)" />
  </g>
</svg>
