<svg xmlns="http://www.w3.org/2000/svg" width="18" height="18" viewBox="0 0 18 18">
  <g id="我创建的" transform="translate(-244.914 -245.768)">
    <rect id="矩形_122" data-name="矩形 122" width="18" height="18" transform="translate(244.914 245.768)" fill="none"/>
    <g id="组_325" data-name="组 325">
      <path id="椭圆_28" data-name="椭圆 28" d="M2.878-.75A3.628,3.628,0,1,1-.75,2.878,3.632,3.632,0,0,1,2.878-.75Zm0,5.756A2.128,2.128,0,1,0,.75,2.878,2.13,2.13,0,0,0,2.878,5.006Z" transform="translate(249.937 248.509)" />
      <path id="路径_88" data-name="路径 88" d="M247.657,261.743a.75.75,0,0,1-.75-.75,8.626,8.626,0,0,1,1.64-5.208,5.34,5.34,0,0,1,4.268-2.269.75.75,0,0,1,0,1.5,3.877,3.877,0,0,0-3.074,1.677,7.123,7.123,0,0,0-1.334,4.3A.75.75,0,0,1,247.657,261.743Z" />
      <path id="直线_1069" data-name="直线 1069" d="M5.776.75H0A.75.75,0,0,1-.75,0,.75.75,0,0,1,0-.75H5.776a.75.75,0,0,1,.75.75A.75.75,0,0,1,5.776.75Z" transform="translate(254.383 258.105)" />
      <path id="直线_1070" data-name="直线 1070" d="M0,6.526a.75.75,0,0,1-.75-.75V0A.75.75,0,0,1,0-.75.75.75,0,0,1,.75,0V5.776A.75.75,0,0,1,0,6.526Z" transform="translate(257.271 255.217)" />
    </g>
  </g>
</svg>
