<svg xmlns="http://www.w3.org/2000/svg" width="18" height="18" viewBox="0 0 18 18">
  <g id="自定义指标" transform="translate(-256.132 -180.884)">
    <rect id="矩形_123" data-name="矩形 123" width="18" height="18" transform="translate(256.132 180.884)" fill="none"/>
    <g id="自定义指标-2" data-name="自定义指标">
      <path id="路径_691" data-name="路径 691" d="M264.781,190.576a.748.748,0,0,1-.541-.231l-5.9-6.151a.75.75,0,0,1,.541-1.269h11.4a.75.75,0,0,1,.656.386l.952,1.716a.75.75,0,1,1-1.312.728l-.738-1.33h-9.2l4.681,4.882a.75.75,0,0,1-.541,1.269Z" />
      <path id="路径_692" data-name="路径 692" d="M270.331,196.727h-11.4a.75.75,0,0,1-.541-1.269l5.9-6.151a.75.75,0,0,1,1.083,1.038l-4.681,4.882h9.2l.685-1.235a.75.75,0,0,1,1.312.728l-.9,1.621A.75.75,0,0,1,270.331,196.727Z" />
    </g>
  </g>
</svg>
