<svg xmlns="http://www.w3.org/2000/svg" width="18" height="18" viewBox="0 0 18 18">
  <g id="自定义表11" transform="translate(0 -0.132)">
    <rect id="矩形_5" data-name="矩形 5" width="18" height="18" transform="translate(0 0.132)" fill="none"/>
    <g id="组_2713" data-name="组 2713" transform="translate(-520.574 -375.328)">
      <path id="矩形_987" data-name="矩形 987" d="M0-.75H13a.75.75,0,0,1,.75.75V10.535a.75.75,0,0,1-.75.75H0a.75.75,0,0,1-.75-.75V0A.75.75,0,0,1,0-.75ZM12.25.75H.75V9.785h11.5Z" transform="translate(523.074 379.193)" />
      <path id="直线_630" data-name="直线 630" d="M13,.75H0A.75.75,0,0,1-.75,0,.75.75,0,0,1,0-.75H13a.75.75,0,0,1,.75.75A.75.75,0,0,1,13,.75Z" transform="translate(523.074 382.461)" />
      <path id="直线_631" data-name="直线 631" d="M0,8.016a.75.75,0,0,1-.75-.75V0A.75.75,0,0,1,0-.75.75.75,0,0,1,.75,0V7.266A.75.75,0,0,1,0,8.016Z" transform="translate(527.453 382.461)" />
      <path id="直线_632" data-name="直线 632" d="M0,8.016a.75.75,0,0,1-.75-.75V0A.75.75,0,0,1,0-.75.75.75,0,0,1,.75,0V7.266A.75.75,0,0,1,0,8.016Z" transform="translate(531.676 382.461)" />
      <path id="直线_633" data-name="直线 633" d="M13,.75H0A.75.75,0,0,1-.75,0,.75.75,0,0,1,0-.75H13a.75.75,0,0,1,.75.75A.75.75,0,0,1,13,.75Z" transform="translate(523.074 386.092)" />
    </g>
  </g>
</svg>
