<svg xmlns="http://www.w3.org/2000/svg" width="18" height="18" viewBox="0 0 18 18">
  <g id="数据报表" transform="translate(0 0)">
    <rect id="矩形_122" data-name="矩形 122" width="18" height="18" transform="translate(0 0)" fill="none"/>
    <g id="组_3773" data-name="组 3773" transform="translate(2.724 2.742)">
      <path id="路径_676" data-name="路径 676" d="M106.182,184.208h8.41a.75.75,0,0,1,.492.184l4.074,3.545a.75.75,0,0,1,.258.566v8.939a.75.75,0,0,1-.75.75H106.182a.75.75,0,0,1-.75-.75V184.958A.75.75,0,0,1,106.182,184.208Zm8.129,1.5h-7.379v10.984h10.984v-7.847Z" transform="translate(-106.182 -184.958)" />
      <path id="路径_677" data-name="路径 677" d="M118.667,189.254h-4.074a.75.75,0,0,1-.75-.75v-3.545a.75.75,0,0,1,1.5,0v2.8h3.324a.75.75,0,0,1,0,1.5Z" transform="translate(-106.182 -184.958)" />
      <path id="直线_860" data-name="直线 860" d="M0,6a.75.75,0,0,1-.75-.75V0A.75.75,0,0,1,0-.75.75.75,0,0,1,.75,0V5.245A.75.75,0,0,1,0,6Z" transform="translate(3.373 2.745)" />
      <path id="直线_861" data-name="直线 861" d="M6.783.75H0A.75.75,0,0,1-.75,0,.75.75,0,0,1,0-.75H6.783a.75.75,0,0,1,.75.75A.75.75,0,0,1,6.783.75Z" transform="translate(2.851 10.167)" />
      <path id="直线_862" data-name="直线 862" d="M0,3.069a.75.75,0,0,1-.75-.75V0A.75.75,0,0,1,0-.75.75.75,0,0,1,.75,0V2.319A.75.75,0,0,1,0,3.069Z" transform="translate(6.276 5.671)" />
      <path id="直线_863" data-name="直线 863" d="M0,1.773a.75.75,0,0,1-.75-.75V0A.75.75,0,0,1,0-.75.75.75,0,0,1,.75,0V1.023A.75.75,0,0,1,0,1.773Z" transform="translate(9.04 6.967)" />
    </g>
  </g>
</svg>
