<svg xmlns="http://www.w3.org/2000/svg" width="15.823" height="15.823" viewBox="0 0 15.823 15.823">
  <g id="组_3796" data-name="组 3796" transform="translate(-150.262 -67.178)">
    <path id="椭圆_188" data-name="椭圆 188" d="M7.161-.75A7.911,7.911,0,1,1-.75,7.161,7.92,7.92,0,0,1,7.161-.75Zm0,14.323A6.411,6.411,0,1,0,.75,7.161,6.419,6.419,0,0,0,7.161,13.573Z" transform="translate(151.012 67.928)" />
    <path id="直线_870" data-name="直线 870" d="M0,5.922A.748.748,0,0,1-.53,5.7a.75.75,0,0,1,0-1.061L4.642-.53A.75.75,0,0,1,5.7-.53.75.75,0,0,1,5.7.53L.53,5.7A.748.748,0,0,1,0,5.922Z" transform="translate(155.588 72.502)" />
    <path id="直线_871" data-name="直线 871" d="M5.172,5.922a.748.748,0,0,1-.53-.22L-.53.53A.75.75,0,0,1-.53-.53.75.75,0,0,1,.53-.53L5.7,4.642a.75.75,0,0,1-.53,1.28Z" transform="translate(155.588 72.502)" />
  </g>
</svg>
