<svg xmlns="http://www.w3.org/2000/svg" width="5.541" height="13.618" viewBox="0 0 5.541 13.618">
  <g id="降序" transform="translate(0.75 12.868) rotate(-90)">
    <path id="路径_593" data-name="路径 593" d="M12.118.75H0A.75.75,0,0,1-.75,0,.75.75,0,0,1,0-.75H12.118a.75.75,0,0,1,.75.75A.75.75,0,0,1,12.118.75Z" transform="translate(0 4.041)"/>
    <path id="路径_594" data-name="路径 594" d="M0,4.791a.748.748,0,0,1-.53-.22.75.75,0,0,1,0-1.061L3.511-.53a.75.75,0,0,1,1.061,0,.75.75,0,0,1,0,1.061L.53,4.571A.748.748,0,0,1,0,4.791Z" transform="translate(0)"/>
  </g>
</svg>
