<?xml version="1.0" encoding="UTF-8"?>
<svg id="_图层_1" data-name="图层 1" xmlns="http://www.w3.org/2000/svg" version="1.1" viewBox="0 0 16 16">
  <defs>
    <style>
      .cls-1 {
        stroke-width: 0px;
      }

      .cls-2 {
        opacity: 0;
      }
    </style>
  </defs>
  <g class="cls-2">
    <rect class="cls-1" width="16" height="16"/>
  </g>
  <path class="cls-1" d="M11.7,9c-.3-.3-.8-.3-1.1,0l-1.9,1.9V.8c0-.4-.3-.8-.8-.8s-.8.3-.8.8v10.2l-1.9-1.9c-.3-.3-.8-.3-1.1,0h0c-.3.3-.3.8,0,1.1l3.2,3.2c.3.3.8.3,1.1,0l3.2-3.2c.3-.3.3-.8,0-1.1Z"/>
  <path class="cls-1" d="M15,16H1c-.6,0-1-.5-1-1.1v-5.3c0-.4.3-.8.8-.8s.8.3.8.8v4.9h13v-4.9c0-.4.3-.8.8-.8s.8.3.8.8v5.3c0,.6-.5,1.1-1,1.1Z"/>
</svg>
