<svg xmlns="http://www.w3.org/2000/svg" width="16.19" height="16" viewBox="0 0 16.19 16">
  <g id="编辑显示名_序号_备注" data-name="编辑显示名/序号/备注" transform="translate(-6 -6)">
    <rect id="矩形_122" data-name="矩形 122" width="16" height="16" rx="2" transform="translate(6 6)" fill="none"/>
    <path id="路径_645" data-name="路径 645" d="M124.605,42.973H113.789a1.865,1.865,0,0,1-1.863-1.863V30.252a1.865,1.865,0,0,1,1.863-1.863h5.636a.75.75,0,0,1,0,1.5h-5.636a.363.363,0,0,0-.363.363V41.11a.363.363,0,0,0,.363.363h10.816a.363.363,0,0,0,.363-.363V35.681a.75.75,0,1,1,1.5,0V41.11A1.865,1.865,0,0,1,124.605,42.973Z" transform="translate(-105.814 -21.12)"/>
    <path id="路径_646" data-name="路径 646" d="M118.31,37.657a.75.75,0,0,1-.749-.781l.1-2.292a.75.75,0,0,1,.219-.5l6.652-6.652a.75.75,0,0,1,1.061,0l2.2,2.2a.75.75,0,0,1,0,1.061l-6.652,6.652a.75.75,0,0,1-.5.219l-2.292.1Zm.833-2.718-.05,1.185,1.185-.05,5.915-5.915-1.135-1.135Z" transform="translate(-105.814 -21.12)"/>
  </g>
</svg>
