<svg id="Error_强" xmlns="http://www.w3.org/2000/svg" width="20" height="20" viewBox="0 0 20 20">
  <path id="路径" d="M9,0A9,9,0,1,1,0,9,9,9,0,0,1,9,0Z" transform="translate(1 1)" />
  <path id="形状结合" d="M6.157.146l.619.619a.5.5,0,0,1,0,.707L4.786,3.461,6.776,5.45a.5.5,0,0,1,0,.707l-.619.619a.5.5,0,0,1-.707,0L3.46,4.787,1.472,6.776a.5.5,0,0,1-.707,0L.146,6.157a.5.5,0,0,1,0-.707L2.134,3.461.146,1.473a.5.5,0,0,1,0-.707L.765.147a.5.5,0,0,1,.707,0L3.46,2.135,5.45.146A.5.5,0,0,1,6.157.146Z" transform="translate(6.55 6.55)" fill="#fff"/>
</svg>
