<svg xmlns="http://www.w3.org/2000/svg" width="18" height="18" viewBox="0 0 18 18">
  <g id="事件分析" transform="translate(0 0)">
    <rect id="矩形_122" data-name="矩形 122" width="18" height="18" transform="translate(0 0)" fill="none"/>
    <g id="组_324" data-name="组 324" transform="translate(2.698 2.742)">
      <path id="矩形_145" data-name="矩形 145" d="M.967-.75H11.606A1.719,1.719,0,0,1,13.323.967v9.26a1.719,1.719,0,0,1-1.717,1.717H.967A1.719,1.719,0,0,1-.75,10.227V.967A1.719,1.719,0,0,1,.967-.75ZM11.606,10.444a.217.217,0,0,0,.217-.217V.967A.217.217,0,0,0,11.606.75H.967A.217.217,0,0,0,.75.967v9.26a.217.217,0,0,0,.217.217Z" transform="translate(0 1.29)" />
      <path id="直线_55" data-name="直线 55" d="M0,2.926a.75.75,0,0,1-.75-.75V0A.75.75,0,0,1,0-.75.75.75,0,0,1,.75,0V2.176A.75.75,0,0,1,0,2.926Z" transform="translate(3.449)" />
      <path id="直线_56" data-name="直线 56" d="M0,2.926a.75.75,0,0,1-.75-.75V0A.75.75,0,0,1,0-.75.75.75,0,0,1,.75,0V2.176A.75.75,0,0,1,0,2.926Z" transform="translate(9.116)" />
      <path id="直线_57" data-name="直线 57" d="M12.318.75H0A.75.75,0,0,1-.75,0,.75.75,0,0,1,0-.75H12.318a.75.75,0,0,1,.75.75A.75.75,0,0,1,12.318.75Z" transform="translate(0.232 4.476)" />
      <path id="直线_58" data-name="直线 58" d="M8.328.75H0A.75.75,0,0,1-.75,0,.75.75,0,0,1,0-.75H8.328a.75.75,0,0,1,.75.75A.75.75,0,0,1,8.328.75Z" transform="translate(2.122 7.201)" />
      <path id="直线_59" data-name="直线 59" d="M8.328.75H0A.75.75,0,0,1-.75,0,.75.75,0,0,1,0-.75H8.328a.75.75,0,0,1,.75.75A.75.75,0,0,1,8.328.75Z" transform="translate(2.122 9.753)" />
    </g>
  </g>
</svg>
