<svg xmlns="http://www.w3.org/2000/svg" width="18" height="18" viewBox="0 0 18 18">
  <g id="事件属性管理" transform="translate(0 -0.132)">
    <rect id="矩形_5" data-name="矩形 5" width="18" height="18" transform="translate(0 0.132)" fill="none"/>
    <rect id="矩形_4" data-name="矩形 4" width="14" height="14" transform="translate(2 2.132)" fill="none"/>
    <g id="组_244" data-name="组 244" transform="translate(-649.415 -307.263)">
      <g id="组_243" data-name="组 243">
        <g id="组_240" data-name="组 240">
          <path id="直线_20" data-name="直线 20" d="M6.632.75H0A.75.75,0,0,1-.75,0,.75.75,0,0,1,0-.75H6.632a.75.75,0,0,1,.75.75A.75.75,0,0,1,6.632.75Z" transform="translate(658.278 311.395)" />
          <path id="直线_21" data-name="直线 21" d="M2.994.75H0A.75.75,0,0,1-.75,0,.75.75,0,0,1,0-.75H2.994a.75.75,0,0,1,.75.75A.75.75,0,0,1,2.994.75Z" transform="translate(651.92 311.396)" />
          <path id="椭圆_16" data-name="椭圆 16" d="M1.268-.5A1.768,1.768,0,1,1-.5,1.268,1.77,1.77,0,0,1,1.268-.5Zm0,2.536A.768.768,0,1,0,.5,1.268.769.769,0,0,0,1.268,2.036Z" transform="translate(655.229 310.128)"/>
        </g>
        <g id="组_3320" data-name="组 3320" transform="translate(651.92 315.128)">
          <path id="直线_20-2" data-name="直线 20" d="M6.632.75H0A.75.75,0,0,1-.75,0,.75.75,0,0,1,0-.75H6.632a.75.75,0,0,1,.75.75A.75.75,0,0,1,6.632.75Z" transform="translate(0 1.268)" />
          <path id="直线_21-2" data-name="直线 21" d="M2.994.75H0A.75.75,0,0,1-.75,0,.75.75,0,0,1,0-.75H2.994a.75.75,0,0,1,.75.75A.75.75,0,0,1,2.994.75Z" transform="translate(9.996 1.269)" />
          <path id="椭圆_16-2" data-name="椭圆 16" d="M1.268-.5A1.769,1.769,0,1,1-.5,1.269,1.77,1.77,0,0,1,1.268-.5Zm0,2.537A.769.769,0,1,0,.5,1.269.769.769,0,0,0,1.268,2.037Z" transform="translate(7.145 0)" />
        </g>
        <g id="组_3321" data-name="组 3321" transform="translate(651.918 320.131)">
          <path id="直线_20-3" data-name="直线 20" d="M6.632.75H0A.75.75,0,0,1-.75,0,.75.75,0,0,1,0-.75H6.632a.75.75,0,0,1,.75.75A.75.75,0,0,1,6.632.75Z" transform="translate(6.356 1.267)" />
          <path id="直线_21-3" data-name="直线 21" d="M2.994.75H0A.75.75,0,0,1-.75,0,.75.75,0,0,1,0-.75H2.994a.75.75,0,0,1,.75.75A.75.75,0,0,1,2.994.75Z" transform="translate(-0.002 1.268)" />
          <path id="椭圆_16-3" data-name="椭圆 16" d="M1.268-.5A1.769,1.769,0,1,1-.5,1.269,1.77,1.77,0,0,1,1.268-.5Zm0,2.537A.769.769,0,1,0,.5,1.269.769.769,0,0,0,1.268,2.037Z" transform="translate(3.307 -0.001)"/>
        </g>
      </g>
    </g>
  </g>
</svg>
