<svg xmlns="http://www.w3.org/2000/svg" width="16" height="16" viewBox="0 0 16 16">
  <g id="事件拆分" transform="translate(-277.062 -181.884)">
    <rect id="矩形_123" data-name="矩形 123" width="16" height="16" transform="translate(277.062 181.884)" fill="none"/>
    <path id="路径_796" data-name="路径 796" d="M283.979,190.634h-5.111a.75.75,0,0,1,0-1.5h4.755l3.1-3.8a.75.75,0,0,1,.581-.276h2.9a.75.75,0,0,1,0,1.5h-2.539l-3.1,3.8A.75.75,0,0,1,283.979,190.634Z" />
    <g id="组_4582" data-name="组 4582">
      <path id="直线_1052" data-name="直线 1052" d="M1.524,2.616a.748.748,0,0,1-.581-.276L-.581.474A.75.75,0,0,1-.474-.581.75.75,0,0,1,.581-.474L2.1,1.392a.75.75,0,0,1-.581,1.224Z" transform="translate(289.733 183.983)" />
      <path id="直线_1053" data-name="直线 1053" d="M0,2.616a.747.747,0,0,1-.474-.169A.75.75,0,0,1-.581,1.392L.942-.474A.75.75,0,0,1,2-.581.75.75,0,0,1,2.1.474L.581,2.341A.749.749,0,0,1,0,2.616Z" transform="translate(289.733 185.871)" />
    </g>
    <g id="组_4583" data-name="组 4583">
      <path id="直线_1054" data-name="直线 1054" d="M1.524,2.616a.748.748,0,0,1-.581-.276L-.581.474A.75.75,0,0,1-.474-.581.75.75,0,0,1,.581-.474L2.1,1.392a.75.75,0,0,1-.581,1.224Z" transform="translate(289.733 192.084)" />
      <path id="直线_1055" data-name="直线 1055" d="M0,2.616a.747.747,0,0,1-.474-.169A.75.75,0,0,1-.581,1.392L.942-.474A.75.75,0,0,1,2-.581.75.75,0,0,1,2.1.474L.581,2.341A.749.749,0,0,1,0,2.616Z" transform="translate(289.733 193.971)" />
    </g>
    <path id="路径_797" data-name="路径 797" d="M290.2,194.711h-2.9a.75.75,0,0,1-.581-.276l-3.1-3.8h-4.755a.75.75,0,0,1,0-1.5h5.111a.75.75,0,0,1,.581.276l3.1,3.8H290.2a.75.75,0,0,1,0,1.5Z" />
  </g>
</svg>
