<svg xmlns="http://www.w3.org/2000/svg" width="18" height="18" viewBox="0 0 18 18">
    <g id="事件管理" transform="translate(0 -0.132)">
        <rect id="矩形_5" data-name="矩形 5" width="18" height="18" transform="translate(0 0.132)" fill="none"/>
        <rect id="矩形_4" data-name="矩形 4" width="14" height="14" transform="translate(2 2.132)" fill="none"/>
        <path id="矩形_7" data-name="矩形 7"
              d="M1.5,1.5v11h8V1.5h-8M1,0h9a1,1,0,0,1,1,1V14H1a1,1,0,0,1-1-1V1A1,1,0,0,1,1,0Z"
              transform="translate(2 2.132)" />
        <path id="矩形_8" data-name="矩形 8"
              d="M1.5,1.5v6H3v-6H1.5M1,0H3.5a1,1,0,0,1,1,1V8a1,1,0,0,1-1,1H0V1A1,1,0,0,1,1,0Z"
              transform="translate(11.5 7.132)" />
        <path id="直线_1" data-name="直线 1"
              d="M2.16.75H0A.75.75,0,0,1-.75,0,.75.75,0,0,1,0-.75H2.16A.75.75,0,0,1,2.91,0,.75.75,0,0,1,2.16.75Z"
              transform="translate(5.34 6.133)" />
        <path id="直线_2" data-name="直线 2"
              d="M4.322.75H0A.75.75,0,0,1-.75,0,.75.75,0,0,1,0-.75H4.322a.75.75,0,0,1,.75.75A.75.75,0,0,1,4.322.75Z"
              transform="translate(5.339 9.133)" />
        <path id="直线_3" data-name="直线 3"
              d="M4.322.75H0A.75.75,0,0,1-.75,0,.75.75,0,0,1,0-.75H4.322a.75.75,0,0,1,.75.75A.75.75,0,0,1,4.322.75Z"
              transform="translate(5.339 12.133)"/>
    </g>
</svg>
