<svg xmlns="http://www.w3.org/2000/svg" width="16" height="16" viewBox="0 0 16 16">
  <g id="示例" transform="translate(-426.111 -27.014)">
    <path id="矩形_123" data-name="矩形 123" d="M426.111,27.014h16v16h-16Z" fill="none"/>
    <path id="矩形_123-2" data-name="矩形 123" d="M440.481,32.58h-3.825a.75.75,0,0,1-.75-.75V27.847a.75.75,0,0,1,1.291-.519l3.825,3.983a.75.75,0,0,1-.541,1.269Zm-3.075-1.5h1.315l-1.315-1.369Z" />
    <path id="直线_427" data-name="直线 427" d="M4.145.75H0A.75.75,0,0,1-.75,0,.75.75,0,0,1,0-.75H4.145A.75.75,0,0,1,4.9,0,.75.75,0,0,1,4.145.75Z" transform="translate(430.395 31.893)" />
    <path id="矩形_123-2-2" data-name="矩形 123-2" d="M440.481,42.935h-12.74a.75.75,0,0,1-.75-.75V27.847a.75.75,0,0,1,.75-.75h6.8a.75.75,0,0,1,0,1.5h-6.05V41.435h11.24V33.941a.75.75,0,0,1,1.5,0v8.244A.75.75,0,0,1,440.481,42.935Z" />
    <path id="直线_428" data-name="直线 428" d="M7.483.75H0A.75.75,0,0,1-.75,0,.75.75,0,0,1,0-.75H7.483a.75.75,0,0,1,.75.75A.75.75,0,0,1,7.483.75Z" transform="translate(430.395 35.205)" />
    <path id="直线_429" data-name="直线 429" d="M7.483.75H0A.75.75,0,0,1-.75,0,.75.75,0,0,1,0-.75H7.483a.75.75,0,0,1,.75.75A.75.75,0,0,1,7.483.75Z" transform="translate(430.395 38.517)" />
  </g>
</svg>
