<svg xmlns="http://www.w3.org/2000/svg" width="18" height="18" viewBox="0 0 18 18">
  <g id="示例11" transform="translate(-339.404 -245.266)">
    <rect id="矩形_122" data-name="矩形 122" width="18" height="18" rx="2" transform="translate(339.404 245.266)" fill="none"/>
    <g id="示例">
      <g id="组_3476" data-name="组 3476">
        <path id="矩形_123" data-name="矩形 123" d="M353.932,252.225h-3.32a.75.75,0,0,1-.75-.75v-3.456a.75.75,0,0,1,1.291-.52l3.32,3.456a.75.75,0,0,1-.541,1.27Zm-2.57-1.5h.81l-.81-.843Z"/>
        <path id="直线_427" data-name="直线 427" d="M3.6.75H0A.75.75,0,0,1-.75,0,.75.75,0,0,1,0-.75H3.6a.75.75,0,0,1,.75.75A.75.75,0,0,1,3.6.75Z" transform="translate(345.179 251.53)"/>
        <path id="矩形_123-2" data-name="矩形 123-2" d="M353.932,261.212H342.875a.75.75,0,0,1-.75-.75V248.019a.75.75,0,0,1,.75-.75h5.9a.75.75,0,0,1,0,1.5h-5.151v10.943h9.557v-6.4a.75.75,0,0,1,1.5,0v7.155A.75.75,0,0,1,353.932,261.212Z"/>
        <path id="直线_428" data-name="直线 428" d="M6.494.75H0A.75.75,0,0,1-.75,0,.75.75,0,0,1,0-.75H6.494a.75.75,0,0,1,.75.75A.75.75,0,0,1,6.494.75Z" transform="translate(345.179 254.404)"/>
        <path id="直线_429" data-name="直线 429" d="M6.494.75H0A.75.75,0,0,1-.75,0,.75.75,0,0,1,0-.75H6.494a.75.75,0,0,1,.75.75A.75.75,0,0,1,6.494.75Z" transform="translate(345.179 257.278)"/>
      </g>
    </g>
  </g>
</svg>
