<svg xmlns="http://www.w3.org/2000/svg" width="16" height="16" viewBox="0 0 16 16">
  <g id="下载更多" transform="translate(-385.444 -65.531)">
    <rect id="矩形_122" data-name="矩形 122" width="16" height="16" rx="2" transform="translate(385.444 65.531)" fill="none"/>
    <g id="组_4899" data-name="组 4899">
      <path id="直线_959" data-name="直线 959" d="M14.336.75H0A.75.75,0,0,1-.75,0,.75.75,0,0,1,0-.75H14.336a.75.75,0,0,1,.75.75A.75.75,0,0,1,14.336.75Z" transform="translate(386.263 80.506)"/>
      <path id="直线_960" data-name="直线 960" d="M0,11.563a.75.75,0,0,1-.75-.75V0A.75.75,0,0,1,0-.75.75.75,0,0,1,.75,0V10.813A.75.75,0,0,1,0,11.563Z" transform="translate(393.448 66.556)"/>
      <path id="路径_734" data-name="路径 734" d="M393.431,78.118a.75.75,0,0,1-.53-.22l-7.049-7.049a.75.75,0,1,1,1.061-1.061l6.519,6.519,6.519-6.519a.75.75,0,0,1,1.061,1.061L393.961,77.9A.75.75,0,0,1,393.431,78.118Z"/>
    </g>
  </g>
</svg>
