<?xml version="1.0" encoding="UTF-8"?>
<svg id="_图层_1" data-name="图层 1" xmlns="http://www.w3.org/2000/svg" version="1.1" viewBox="0 0 16 16">
  <defs>
    <style>
      .cls-1, .cls-2 {
        stroke-width: 0px;
      }

      .cls-2 {
        opacity: 0;
      }
    </style>
  </defs>
  <rect class="cls-2" width="16" height="16"/>
  <path class="cls-1" d="M15,16H1c-.6,0-1-.5-1-1V1C0,.5.5,0,1,0h9.8c.2,0,.5,0,.7.2l4.1,3.3c.2.2.4.5.4.8v1.2c0,.4-.3.8-.8.8s-.8-.3-.8-.8v-1l-3.8-3.1H1.5v13h13v-.8c0-.4.3-.8.8-.8s.8.3.8.8v1.2c0,.6-.5,1-1,1ZM14.7,4.7s0,0,0,0h0Z"/>
  <path class="cls-1" d="M15.8,8.8l-3.2-3.2c-.3-.3-.8-.3-1.1,0h0c-.3.3-.3.8,0,1.1l2.1,2.1H5.3c-.4,0-.8.3-.8.8s.3.8.8.8h8l-1.7,1.7c-.3.3-.3.8,0,1.1h0c.3.3.8.3,1.1,0l3.2-3.2c.3-.3.3-.8,0-1.1Z"/>
</svg>
