<svg xmlns="http://www.w3.org/2000/svg" width="28" height="28" viewBox="0 0 28 28">
  <g id="导出列表" transform="translate(-1663 -281)">
    <rect id="矩形_128" data-name="矩形 128" width="28" height="28" rx="2" transform="translate(1663 281)" fill="none"/>
    <g id="组_292" data-name="组 292" transform="translate(710.468 118.43)">
      <path id="路径_55" data-name="路径 55" d="M971.184,173.635h-3.335a1.881,1.881,0,0,1-1.879-1.879V168.07a.75.75,0,0,1,.75-.75h.011a.75.75,0,0,1,.551.241l4.453,4.815a.75.75,0,0,1-.551,1.259Zm-3.714-3.661v1.782a.38.38,0,0,0,.379.379h1.62Z" transform="translate(1.078)" />
      <path id="直线_39" data-name="直线 39" d="M4.245.75H0A.75.75,0,0,1-.75,0,.75.75,0,0,1,0-.75H4.245A.75.75,0,0,1,5,0,.75.75,0,0,1,4.245.75Z" transform="translate(962.652 174.333)" />
      <path id="直线_40" data-name="直线 40" d="M5.442.75H0A.75.75,0,0,1-.75,0,.75.75,0,0,1,0-.75H5.442a.75.75,0,0,1,.75.75A.75.75,0,0,1,5.442.75Z" transform="translate(962.652 178.132)" />
      <path id="直线_41" data-name="直线 41" d="M6.028.75H0A.75.75,0,0,1-.75,0,.75.75,0,0,1,0-.75H6.028a.75.75,0,0,1,.75.75A.75.75,0,0,1,6.028.75Z" transform="translate(967.456 181.93)" />
      <path id="路径_56" data-name="路径 56" d="M970.67,182.967l2.192-2.193a.228.228,0,0,0,0-.324l-2.192-2.193a.23.23,0,0,0-.392.163V182.8A.23.23,0,0,0,970.67,182.967Z" transform="translate(1.542 1.318)" />
      <path id="路径_57" data-name="路径 57" d="M967.8,185.773H959.57a1.882,1.882,0,0,1-1.88-1.88V169.2a1.887,1.887,0,0,1,1.885-1.885h8.235a.75.75,0,0,1,.551.241l4.453,4.815a.75.75,0,0,1,.2.509v3.775a.75.75,0,1,1-1.5,0v-3.481l-4.031-4.358h-7.907a.385.385,0,0,0-.385.385v14.688a.381.381,0,0,0,.38.38H967.8a.75.75,0,0,1,0,1.5Z" transform="translate(0)" />
    </g>
  </g>
</svg>
