<svg xmlns="http://www.w3.org/2000/svg" width="18" height="18" viewBox="0 0 18 18">
  <g id="常见问题" transform="translate(-367.076 -73.669)">
    <rect id="矩形_122" data-name="矩形 122" width="18" height="18" transform="translate(367.076 73.669)" fill="none"/>
    <path id="路径_628" data-name="路径 628" d="M376.076,90.046a.75.75,0,0,1-.316-.07l-6.543-3.037a.75.75,0,0,1-.434-.68V75.926a.75.75,0,0,1,.75-.75h12.949a.75.75,0,0,1,.75.75V86.259a.75.75,0,0,1-.429.678L376.4,89.974A.75.75,0,0,1,376.076,90.046Zm-5.793-4.266,5.79,2.687,5.659-2.683V76.676H370.283Z" transform="translate(0 0.604)" />
    <path id="路径_629" data-name="路径 629" d="M375.889,84.306a.75.75,0,0,1-.75-.75,2.822,2.822,0,0,1,1.194-1.995c.1-.1.211-.2.316-.3a1.077,1.077,0,0,0,.232-1.185.923.923,0,0,0-.845-.614h-.029a1.437,1.437,0,0,0-1.435,1.435.75.75,0,0,1-1.5,0,2.938,2.938,0,0,1,2.935-2.935h.048a2.41,2.41,0,0,1,2.219,1.558,2.582,2.582,0,0,1-.575,2.812c-.116.114-.23.221-.339.324-.371.349-.722.679-.722.9A.75.75,0,0,1,375.889,84.306Z" transform="translate(0 0.604)" />
    <path id="椭圆_158" data-name="椭圆 158" d="M.4-.75A1.15,1.15,0,1,1-.75.4,1.151,1.151,0,0,1,.4-.75Z" transform="translate(375.608 85.767)" />
  </g>
</svg>
