<?xml version="1.0" encoding="utf-8"?>
<!-- Generator: Adobe Illustrator 26.0.1, SVG Export Plug-In . SVG Version: 6.00 Build 0)  -->
<svg version="1.1" id="图层_1" xmlns="http://www.w3.org/2000/svg" xmlns:xlink="http://www.w3.org/1999/xlink" x="0px" y="0px"
	 viewBox="0 0 18 18" style="enable-background:new 0 0 18 18;" xml:space="preserve">
<g>
	<path d="M15.1,16H2.7C2.3,16,2,15.7,2,15.3V7c0-0.4,0.3-0.8,0.8-0.8h12.4c0.4,0,0.8,0.3,0.8,0.8v8.3C15.9,15.7,15.5,16,15.1,16z
		 M3.5,14.5h10.9V7.7H3.5V14.5z"/>
</g>
<path d="M13.4,3.5h-9C4,3.5,3.6,3.2,3.6,2.8v0C3.6,2.3,4,2,4.4,2h9c0.4,0,0.7,0.3,0.7,0.7v0C14.1,3.2,13.8,3.5,13.4,3.5z"/>
</svg>
