<?xml version="1.0" encoding="UTF-8"?>
<svg id="_图层_2" data-name="图层 2" xmlns="http://www.w3.org/2000/svg" width="161.720135" height="161.720135" xmlns:xlink="http://www.w3.org/1999/xlink" viewBox="0 0 161.720135 161.720135">
  <defs>
    <style>
      .cls-1 {
        fill: url(#_未命名的渐变_20);
        stroke-width: 0px;
      }
    </style>
    <linearGradient id="_未命名的渐变_20" data-name="未命名的渐变 20" x1="80.860068" y1="161.720135" x2="80.860068" y2="0" gradientUnits="userSpaceOnUse">
      <stop offset="0" stop-color="#5473e8"/>
      <stop offset="1" stop-color="#46a5fd"/>
    </linearGradient>
  </defs>
  <g id="_图层_1-2" data-name="图层 1">
    <path class="cls-1" d="M127.385171,0H34.33493C15.372264,0,0,15.372264,0,34.33493v93.050241c0,18.962665,15.372264,34.334965,34.33493,34.334965h93.050241c18.962665,0,34.334965-15.372299,34.334965-34.334965V34.33493c0-18.962665-15.372299-34.33493-34.334965-34.33493ZM101.726198,76.483667c0,9.838708-7.975873,17.814581-17.814616,17.814581h-28.169654l-6.471925,37.136273h-22.385092l8.029188-42.195866c.61521-9.281053,8.333439-16.619959,17.770267-16.619959h47.843699c.661713,0,1.198133.536454,1.198133,1.198133v2.666838ZM135.974064,34.150551c0,9.838743-7.975873,17.814616-17.814581,17.814616H42.023095c-.661713,0-1.198133-.536454-1.198133-1.198167v-2.666803c0-9.838708,7.975873-17.814581,17.814581-17.814581h76.136388c.661713,0,1.198133.536419,1.198133,1.198133v2.666803Z"/>
  </g>
</svg>