<svg xmlns="http://www.w3.org/2000/svg" width="15.986" height="15.967" viewBox="0 0 15.986 15.967">
  <g id="探索" transform="translate(-596.517 -65.519)">
    <path id="路径_814" data-name="路径 814" d="M597.267,71.819a.75.75,0,0,1-.75-.75v-4.8a.75.75,0,0,1,.75-.75h4.8a.75.75,0,0,1,0,1.5h-4.05v4.05A.75.75,0,0,1,597.267,71.819Z" />
    <path id="路径_815" data-name="路径 815" d="M602.067,81.485h-4.8a.75.75,0,0,1-.75-.75v-4.8a.75.75,0,0,1,1.5,0v4.05h4.05a.75.75,0,0,1,0,1.5Z" />
    <path id="路径_816" data-name="路径 816" d="M611.754,71.819a.75.75,0,0,1-.75-.75v-4.05h-4.05a.75.75,0,0,1,0-1.5h4.8a.75.75,0,0,1,.75.75v4.8A.75.75,0,0,1,611.754,71.819Z" />
    <path id="路径_817" data-name="路径 817" d="M611.754,81.485h-4.8a.75.75,0,0,1,0-1.5H611v-4.05a.75.75,0,0,1,1.5,0v4.8A.75.75,0,0,1,611.754,81.485Z" />
  </g>
</svg>
