<svg xmlns="http://www.w3.org/2000/svg" width="28" height="28" viewBox="0 0 28 28">
    <g id="筛选" transform="translate(-223.815 -61.089)">
        <rect id="矩形_122" data-name="矩形 122" width="28" height="28" rx="2" transform="translate(223.815 61.089)"
              fill="none"/>
        <path id="路径_47" data-name="路径 47"
              d="M230.333,67.481H245.3a.75.75,0,0,1,.569,1.238l-5.811,6.78v6.447a.75.75,0,0,1-1.082.672L235.98,81.14a.75.75,0,0,1-.418-.672V75.5l-5.8-6.781a.75.75,0,0,1,.57-1.237Zm13.333,1.5h-11.7l4.921,5.754a.75.75,0,0,1,.18.487V80l1.493.737V75.222a.75.75,0,0,1,.181-.488Z"/>
    </g>
</svg>
