<svg xmlns="http://www.w3.org/2000/svg" width="18" height="18" viewBox="0 0 18 18">
  <g id="漏斗分析" transform="translate(0 0)">
    <rect id="矩形_122" data-name="矩形 122" width="18" height="18" transform="translate(0 0)" fill="none"/>
    <path id="路径_678" data-name="路径 678" d="M156.651,182.891H169.1a.75.75,0,0,1,.688,1.048l-1.11,2.56a.75.75,0,0,1-.688.452h-10.23a.75.75,0,0,1-.688-.452l-1.11-2.56a.75.75,0,0,1,.688-1.048Zm11.307,1.5H157.794l.46,1.06H167.5Z" transform="translate(-153.877 -180.883)" />
    <path id="路径_679" data-name="路径 679" d="M158.8,187.841h8.16a.75.75,0,0,1,.689,1.047l-1.11,2.57a.75.75,0,0,1-.689.453h-5.94a.75.75,0,0,1-.689-.453l-1.11-2.57a.75.75,0,0,1,.689-1.047Zm7.019,1.5h-5.878l.462,1.07h4.954Z" transform="translate(-153.877 -180.883)" />
    <path id="路径_680" data-name="路径 680" d="M160.941,192.791h3.88a.75.75,0,0,1,.689,1.047l-1.11,2.57a.75.75,0,0,1-.689.453h-1.66a.75.75,0,0,1-.689-.453l-1.11-2.57a.75.75,0,0,1,.689-1.047Zm2.739,1.5h-1.6l.462,1.07h.674Z" transform="translate(-153.877 -180.883)" />
  </g>
</svg>
