<svg xmlns="http://www.w3.org/2000/svg" width="16" height="16" viewBox="0 0 16 16">
  <g id="组_3856" data-name="组 3856" transform="translate(-83.253 -215.645)">
    <rect id="矩形_123" data-name="矩形 123" width="16" height="16" transform="translate(83.253 215.645)" fill="none"/>
    <path id="路径_47" data-name="路径 47" d="M84.951,217.062h12.6a.75.75,0,0,1,.569,1.238l-4.865,5.677v5.387a.75.75,0,0,1-1.082.672l-2.521-1.245a.75.75,0,0,1-.418-.672v-4.142L84.381,218.3a.75.75,0,0,1,.57-1.237Zm10.973,1.5H86.579l3.978,4.651a.75.75,0,0,1,.18.487v3.953l1.021.5V223.7a.75.75,0,0,1,.181-.488Z" />
  </g>
</svg>
