<svg xmlns="http://www.w3.org/2000/svg" width="16" height="16" viewBox="0 0 16 16">
  <g id="全局筛选" transform="translate(-302.444 -67.089)">
    <rect id="矩形_123" data-name="矩形 123" width="16" height="16" transform="translate(302.444 67.089)" fill="none"/>
    <g id="组_3866" data-name="组 3866">
      <path id="路径_47" data-name="路径 47" d="M303.215,67.157h14.143a.75.75,0,0,1,.593,1.209l-5.506,7.118V82.27a.75.75,0,0,1-1.11.658l-2.829-1.547a.75.75,0,0,1-.39-.658V75.484l-5.495-7.119a.75.75,0,0,1,.594-1.208Zm12.615,1.5H304.741l4.718,6.113a.75.75,0,0,1,.156.458v5.05l1.329.727V75.228a.75.75,0,0,1,.157-.459Z" />
      <path id="直线_884" data-name="直线 884" d="M3.167.75H0A.75.75,0,0,1-.75,0,.75.75,0,0,1,0-.75H3.167a.75.75,0,0,1,.75.75A.75.75,0,0,1,3.167.75Z" transform="translate(314.475 74.963)" />
      <path id="直线_885" data-name="直线 885" d="M3.167.75H0A.75.75,0,0,1-.75,0,.75.75,0,0,1,0-.75H3.167a.75.75,0,0,1,.75.75A.75.75,0,0,1,3.167.75Z" transform="translate(314.475 77.324)" />
      <path id="直线_886" data-name="直线 886" d="M3.167.75H0A.75.75,0,0,1-.75,0,.75.75,0,0,1,0-.75H3.167a.75.75,0,0,1,.75.75A.75.75,0,0,1,3.167.75Z" transform="translate(314.475 79.686)" />
    </g>
  </g>
</svg>
