<svg xmlns="http://www.w3.org/2000/svg" width="18" height="18" viewBox="0 0 18 18">
  <g id="项目组管理" transform="translate(-1702.463 -127.165)">
    <rect id="矩形_122" data-name="矩形 122" width="18" height="18" transform="translate(1702.463 127.165)" fill="none"/>
    <path id="路径_521" data-name="路径 521" d="M1717.885,133.328a.747.747,0,0,1-.374-.1l-6.054-3.5-6.054,3.5a.75.75,0,1,1-.75-1.3l6.429-3.712a.75.75,0,0,1,.75,0l6.429,3.712a.75.75,0,0,1-.376,1.4Z" />
    <path id="路径_522" data-name="路径 522" d="M1711.456,144.081a.75.75,0,0,1-.375-.1l-6.429-3.712a.75.75,0,1,1,.75-1.3l6.054,3.5,6.054-3.5a.75.75,0,1,1,.75,1.3l-6.429,3.712A.749.749,0,0,1,1711.456,144.081Z" />
    <path id="路径_523" data-name="路径 523" d="M1711.47,140.752a.749.749,0,0,1-.375-.1l-6.429-3.712a.75.75,0,1,1,.75-1.3l6.054,3.5,6.054-3.5a.75.75,0,1,1,.75,1.3l-6.429,3.712A.749.749,0,0,1,1711.47,140.752Z" />
    <path id="路径_524" data-name="路径 524" d="M1711.456,137.04a.75.75,0,0,1-.375-.1l-6.429-3.712a.75.75,0,1,1,.75-1.3l6.054,3.5,6.054-3.5a.75.75,0,1,1,.75,1.3l-6.429,3.712A.749.749,0,0,1,1711.456,137.04Z" />
  </g>
</svg>
