<svg xmlns="http://www.w3.org/2000/svg" width="18" height="18" viewBox="0 0 18 18">
  <g id="新手指引" transform="translate(-324.927 -73.669)">
    <rect id="矩形_122" data-name="矩形 122" width="18" height="18" transform="translate(324.927 73.669)" fill="none"/>
    <path id="路径_627" data-name="路径 627" d="M340.415,75.431a.75.75,0,0,1,.695,1.033l-5.6,13.72a.75.75,0,0,1-1.434-.159L332.994,83.6,326.57,82.52a.75.75,0,0,1-.159-1.434l13.72-5.6A.749.749,0,0,1,340.415,75.431Zm-5.3,11.746,3.929-9.627-9.627,3.929,4.35.732a.75.75,0,0,1,.615.615Z" />
  </g>
</svg>
