<svg xmlns="http://www.w3.org/2000/svg" width="28" height="28" viewBox="0 0 28 28">
  <g id="帮助" transform="translate(-1694 -249.625)">
    <rect id="矩形_519" data-name="矩形 519" width="28" height="28" rx="2" transform="translate(1694 249.625)" fill="none"/>
    <g id="帮助_help" transform="translate(1697.725 253.326)">
      <path id="路径_322" data-name="路径 322" d="M9.443,18.469A9.026,9.026,0,0,1,3.06,3.06,9.026,9.026,0,1,1,15.825,15.825,8.967,8.967,0,0,1,9.443,18.469Zm0-16.552A7.526,7.526,0,0,0,4.121,14.764,7.526,7.526,0,1,0,14.764,4.121,7.477,7.477,0,0,0,9.443,1.917Z" transform="translate(1.195 1.195)" />
      <path id="路径_323" data-name="路径 323" d="M7.733,11.053a.75.75,0,0,1-.75-.75V8.648a.75.75,0,0,1,.75-.75A1.733,1.733,0,1,0,6,6.165a.75.75,0,0,1-1.5,0A3.233,3.233,0,1,1,8.483,9.31V10.3A.75.75,0,0,1,7.733,11.053Z" transform="translate(2.905 2.25)" />
      <path id="路径_324" data-name="路径 324" d="M7.305,11.585A1.035,1.035,0,1,0,6.271,10.55,1.035,1.035,0,0,0,7.305,11.585Z" transform="translate(3.333 4.692)"  fill-rule="evenodd"/>
    </g>
  </g>
</svg>
