<svg xmlns="http://www.w3.org/2000/svg" width="16" height="16" viewBox="0 0 16 16">
  <g id="不可见" transform="translate(-549.852 -247.018)">
    <rect id="矩形_122" data-name="矩形 122" width="16" height="16" transform="translate(549.852 247.018)" fill="none"/>
    <path id="路径_823" data-name="路径 823" d="M553,257.868a.747.747,0,0,1-.506-.2,6.269,6.269,0,0,1-1.614-2.3.75.75,0,0,1,0-.557,7.388,7.388,0,0,1,6.967-4.308,8.678,8.678,0,0,1,.913.048.75.75,0,0,1-.158,1.492,7.174,7.174,0,0,0-.755-.04,5.965,5.965,0,0,0-5.452,3.086,4.856,4.856,0,0,0,1.112,1.475.75.75,0,0,1-.507,1.3Z" />
    <path id="路径_824" data-name="路径 824" d="M557.847,259.667c-.277,0-.555-.013-.825-.039a.75.75,0,1,1,.145-1.493c.222.022.45.032.68.032a5.975,5.975,0,0,0,5.462-3.077,4.856,4.856,0,0,0-1.03-1.4.75.75,0,1,1,1.037-1.084,6.268,6.268,0,0,1,1.508,2.205.75.75,0,0,1,0,.557A7.394,7.394,0,0,1,557.847,259.667Z" />
    <path id="路径_826" data-name="路径 826" d="M558.76,257.718a.75.75,0,0,1-.287-1.443,1.239,1.239,0,0,0,.63-.582.75.75,0,0,1,1.337.681,2.74,2.74,0,0,1-1.394,1.288A.748.748,0,0,1,558.76,257.718Z" />
    <path id="路径_827" data-name="路径 827" d="M556.6,257.286a.748.748,0,0,1-.53-.22,2.734,2.734,0,0,1,3.867-3.867.75.75,0,0,1-1.061,1.061,1.234,1.234,0,0,0-1.745,1.745.75.75,0,0,1-.53,1.28Z" />
    <path id="直线_1076" data-name="直线 1076" d="M0,11.667a.748.748,0,0,1-.53-.22.75.75,0,0,1,0-1.061L10.386-.53a.75.75,0,0,1,1.061,0,.75.75,0,0,1,0,1.061L.53,11.447A.748.748,0,0,1,0,11.667Z" transform="translate(552.523 249.696)" />
  </g>
</svg>
