<svg xmlns="http://www.w3.org/2000/svg" width="18" height="18" viewBox="0 0 18 18">
  <g id="组_5120" data-name="组 5120" transform="translate(-36.606 -245.46)">
    <rect id="矩形_122" data-name="矩形 122" width="18" height="18" transform="translate(36.606 245.46)" fill="none"/>
    <g id="切换_switch" data-name="切换 switch">
      <path id="路径_591" data-name="路径 591" d="M51.534,253.495H39.41a.75.75,0,0,1,0-1.5H51.534a.75.75,0,0,1,0,1.5Z" />
      <path id="路径_592" data-name="路径 592" d="M51.534,253.495a.748.748,0,0,1-.53-.22l-4.041-4.041a.75.75,0,0,1,1.061-1.061l4.041,4.041a.75.75,0,0,1-.53,1.28Z" />
      <path id="路径_593" data-name="路径 593" d="M51.8,256.863H39.68a.75.75,0,0,1,0-1.5H51.8a.75.75,0,0,1,0,1.5Z" />
      <path id="路径_594" data-name="路径 594" d="M43.721,260.9a.748.748,0,0,1-.53-.22l-4.041-4.041a.75.75,0,0,1,1.061-1.061l4.041,4.041a.75.75,0,0,1-.53,1.28Z" />
    </g>
  </g>
</svg>
