<svg xmlns="http://www.w3.org/2000/svg" width="15.987" height="16.022" viewBox="0 0 15.987 16.022">
  <g id="组_3791" data-name="组 3791" transform="translate(-111.217 -67.061)">
    <path id="矩形_1172" data-name="矩形 1172" d="M0-.75H14.487a.75.75,0,0,1,.75.75V3.5a.75.75,0,0,1-.75.75H0A.75.75,0,0,1-.75,3.5V0A.75.75,0,0,1,0-.75ZM13.737.75H.75v2H13.737Z" transform="translate(111.967 67.811)" />
    <path id="矩形_1173" data-name="矩形 1173" d="M0-.75H7.959a.75.75,0,0,1,.75.75V2.8a.75.75,0,0,1-.75.75H0A.75.75,0,0,1-.75,2.8V0A.75.75,0,0,1,0-.75ZM7.209.75H.75v1.3H7.209Z" transform="translate(111.967 74.15)" />
    <path id="矩形_1174" data-name="矩形 1174" d="M0-.75H7.959a.75.75,0,0,1,.75.75V2.8a.75.75,0,0,1-.75.75H0A.75.75,0,0,1-.75,2.8V0A.75.75,0,0,1,0-.75ZM7.209.75H.75v1.3H7.209Z" transform="translate(111.967 79.531)" />
    <path id="矩形_1175" data-name="矩形 1175" d="M0-.75H8.182a.75.75,0,0,1,.75.75V3.5a.75.75,0,0,1-.75.75H0A.75.75,0,0,1-.75,3.5V0A.75.75,0,0,1,0-.75ZM7.432.75H.75v2H7.432Z" transform="translate(126.454 74.15) rotate(90)" />
  </g>
</svg>
