<svg id="Info_强" xmlns="http://www.w3.org/2000/svg" width="20" height="20" viewBox="0 0 20 20">
  <g id="Group_2721" data-name="Group 2721" transform="translate(1 1)">
    <rect id="矩形_869" data-name="矩形 869" width="20" height="20" transform="translate(-1 -1)" fill="none"/>
    <path id="路径" d="M9,0A9,9,0,1,1,0,9,9,9,0,0,1,9,0Z" />
    <path id="形状结合" d="M4.043,9.228H.336A.336.336,0,0,1,0,8.892V7.817a.336.336,0,0,1,.336-.336h.9V4.712H1.06a.337.337,0,0,1-.337-.336V3.285a.337.337,0,0,1,.337-.337H1.49a.233.233,0,0,1,.043,0H2.852a.3.3,0,0,1,.3.3V7.48h.891a.336.336,0,0,1,.336.336V8.892A.336.336,0,0,1,4.043,9.228ZM2.677,1.92H1.428a.336.336,0,0,1-.336-.336V.336A.336.336,0,0,1,1.428,0H2.677a.336.336,0,0,1,.336.336V1.584A.336.336,0,0,1,2.677,1.92Z" transform="translate(6.844 4.392)" fill="#fff"/>
  </g>
</svg>
