<svg xmlns="http://www.w3.org/2000/svg" width="18" height="18" viewBox="0 0 18 18">
  <g id="间隔分析" transform="translate(0 0)">
    <rect id="矩形_122" data-name="矩形 122" width="18" height="18" transform="translate(0 0)" fill="none"/>
    <g id="组_439" data-name="组 439" transform="translate(2.733 2.742)">
      <path id="直线_90" data-name="直线 90" d="M0,13.234a.75.75,0,0,1-.75-.75V0A.75.75,0,0,1,0-.75.75.75,0,0,1,.75,0V12.484A.75.75,0,0,1,0,13.234Z" />
      <path id="直线_91" data-name="直线 91" d="M0,13.234a.75.75,0,0,1-.75-.75V0A.75.75,0,0,1,0-.75.75.75,0,0,1,.75,0V12.484A.75.75,0,0,1,0,13.234Z" transform="translate(12.535)" />
      <g id="组_438" data-name="组 438" transform="translate(2.05 3.795)">
        <path id="直线_92" data-name="直线 92" d="M7.587.75H0A.75.75,0,0,1-.75,0,.75.75,0,0,1,0-.75H7.587a.75.75,0,0,1,.75.75A.75.75,0,0,1,7.587.75Z" transform="translate(0.382 2.437)" />
        <path id="路径_129" data-name="路径 129" d="M92.162,193.042a.748.748,0,0,1-.53-.22L89.2,190.386a.75.75,0,0,1,0-1.061l2.436-2.436a.75.75,0,1,1,1.061,1.061l-1.906,1.906,1.906,1.906a.75.75,0,0,1-.53,1.28Z" transform="translate(-89.726 -187.42)" />
        <path id="路径_130" data-name="路径 130" d="M95.751,193.042a.75.75,0,0,1-.53-1.28l1.9-1.906-1.9-1.906a.75.75,0,0,1,1.061-1.06l2.435,2.436a.75.75,0,0,1,0,1.06l-2.435,2.436A.748.748,0,0,1,95.751,193.042Z" transform="translate(-89.726 -187.42)" />
      </g>
    </g>
  </g>
</svg>
