<svg xmlns="http://www.w3.org/2000/svg" width="18" height="18" viewBox="0 0 18 18">
  <g id="文件夹" transform="translate(-429.685 -384.185)">
    <rect id="矩形_122" data-name="矩形 122" width="18" height="18" transform="translate(429.685 384.185)" fill="none"/>
    <path id="路径_807" data-name="路径 807" d="M434.815,392.38h11.444a.75.75,0,0,1,.687,1.05l-2.389,5.463a.75.75,0,0,1-.687.449H432.426a.75.75,0,0,1-.687-1.05l2.389-5.463A.75.75,0,0,1,434.815,392.38Zm10.3,1.5h-9.807l-1.733,3.963h9.807Z" />
    <path id="路径_809" data-name="路径 809" d="M443.87,399.343H432.426a.75.75,0,0,1-.75-.75V387.667a.75.75,0,0,1,.75-.75H436.2a.75.75,0,0,1,.53.22l1.817,1.817h5.319a.75.75,0,0,1,.75.75v3.111a.75.75,0,0,1-1.5,0v-2.361h-4.88a.75.75,0,0,1-.53-.22l-1.817-1.817h-2.717v9.426H443.87a.75.75,0,0,1,0,1.5Z" />
  </g>
</svg>
