<svg xmlns="http://www.w3.org/2000/svg" width="15.5" height="15.5" viewBox="0 0 15.5 15.5">
  <g id="新建看板" transform="translate(-127.75 -17.25)">
    <path id="直线_501" data-name="直线 501" d="M0,14.75A.75.75,0,0,1-.75,14V0A.75.75,0,0,1,0-.75.75.75,0,0,1,.75,0V14A.75.75,0,0,1,0,14.75Z" transform="translate(135.5 18)" />
    <path id="直线_502" data-name="直线 502" d="M0,14.75A.75.75,0,0,1-.75,14V0A.75.75,0,0,1,0-.75.75.75,0,0,1,.75,0V14A.75.75,0,0,1,0,14.75Z" transform="translate(142.5 25) rotate(90)" />
  </g>
</svg>
