<svg xmlns="http://www.w3.org/2000/svg" width="19.25" height="16" viewBox="0 0 19.25 16">
  <g id="看板管理" transform="translate(-203.75 -83.5)">
    <g id="组_2043" data-name="组 2043" transform="translate(2)">
      <path id="直线_504" data-name="直线 504" d="M0,14.75A.75.75,0,0,1-.75,14V0A.75.75,0,0,1,0-.75.75.75,0,0,1,.75,0V14A.75.75,0,0,1,0,14.75Z" transform="translate(216.5 84.5) rotate(90)" />
      <circle id="椭圆_97" data-name="椭圆 97" cx="1" cy="1" r="1" transform="translate(219 83.5)" />
    </g>
    <g id="组_2043-2" data-name="组 2043" transform="translate(2 7)">
      <path id="直线_504-2" data-name="直线 504" d="M0,14.75A.75.75,0,0,1-.75,14V0A.75.75,0,0,1,0-.75.75.75,0,0,1,.75,0V14A.75.75,0,0,1,0,14.75Z" transform="translate(216.5 84.5) rotate(90)" />
      <circle id="椭圆_97-2" data-name="椭圆 97" cx="1" cy="1" r="1" transform="translate(219 83.5)" />
    </g>
    <g id="组_2043-3" data-name="组 2043" transform="translate(2 14)">
      <path id="直线_504-3" data-name="直线 504" d="M0,14.75A.75.75,0,0,1-.75,14V0A.75.75,0,0,1,0-.75.75.75,0,0,1,.75,0V14A.75.75,0,0,1,0,14.75Z" transform="translate(216.5 84.5) rotate(90)" />
      <circle id="椭圆_97-3" data-name="椭圆 97" cx="1" cy="1" r="1" transform="translate(219 83.5)" />
    </g>
  </g>
</svg>
