<svg xmlns="http://www.w3.org/2000/svg" width="18" height="18" viewBox="0 0 18 18">
  <g id="空间" transform="translate(-402.963 -384.185)">
    <rect id="矩形_122" data-name="矩形 122" width="18" height="18" transform="translate(402.963 384.185)" fill="none"/>
    <path id="路径_805" data-name="路径 805" d="M411.963,385.176a.75.75,0,0,1,.375.1l6.3,3.635a.75.75,0,0,1,.375.65v7.27a.75.75,0,0,1-.375.65l-6.3,3.635a.75.75,0,0,1-.75,0l-6.3-3.635a.75.75,0,0,1-.375-.65v-7.27a.75.75,0,0,1,.375-.65l6.3-3.635A.75.75,0,0,1,411.963,385.176Zm5.546,4.818-5.546-3.2-5.546,3.2v6.4l5.546,3.2,5.546-3.2Z" />
    <path id="路径_806" data-name="路径 806" d="M412.158,393.891a.75.75,0,0,1-.362-.093l-6.491-3.58a.75.75,0,0,1,.724-1.314l6.117,3.374,5.734-3.364a.75.75,0,1,1,.759,1.294l-6.1,3.58A.749.749,0,0,1,412.158,393.891Z" />
    <path id="直线_1066" data-name="直线 1066" d="M0,8.02a.75.75,0,0,1-.75-.75V0A.75.75,0,0,1,0-.75.75.75,0,0,1,.75,0V7.27A.75.75,0,0,1,0,8.02Z" transform="translate(411.963 393.196)" />
  </g>
</svg>
