<svg id="折线图1" xmlns="http://www.w3.org/2000/svg" width="16" height="16" viewBox="0 0 16 16">
  <rect id="矩形_123" data-name="矩形 123" width="16" height="16" fill="none"/>
  <g id="组_344" data-name="组 344" transform="translate(0.803 1.936)">
    <path id="路径_106" data-name="路径 106" d="M78.354,114.426a.75.75,0,0,1-.615-1.179l3.976-5.71a.75.75,0,0,1,1.231,0l1.877,2.7,4.1-5.892a.75.75,0,0,1,1.231.857l-4.718,6.776a.75.75,0,0,1-1.231,0l-1.877-2.7L78.97,114.1A.749.749,0,0,1,78.354,114.426Z" transform="translate(-76.173 -104.77)" />
    <path id="直线_67" data-name="直线 67" d="M14.394.75H0A.75.75,0,0,1-.75,0,.75.75,0,0,1,0-.75H14.394a.75.75,0,0,1,.75.75A.75.75,0,0,1,14.394.75Z" transform="translate(0 12.74)" />
  </g>
</svg>
