<?xml version="1.0" encoding="UTF-8"?>
<svg id="_图层_2" data-name="图层 2" xmlns="http://www.w3.org/2000/svg" width="16" height="16" viewBox="0 0 16 16">
  <defs>
    <style>
      .cls-1 {
      }

      .cls-1, .cls-2 {
        stroke-width: 0px;
      }

      .cls-2 {
        opacity: 0;
      }
    </style>
  </defs>
  <g id="_图层_1-2" data-name="图层 1">
    <g>
      <rect id="_矩形_122" data-name="矩形 122" class="cls-2" width="16" height="16"/>
      <path class="cls-1" d="M10.569692,8.826172c-.12793,0-.255859-.048828-.353516-.146484-.195312-.195312-.195312-.511719,0-.707031l1.773438-1.773926c.37207-.37207.590332-.849609.614746-1.345215.023438-.477051-.137207-.913574-.452637-1.229004s-.748047-.471191-1.229492-.453125c-.495605.024414-.973145.242676-1.345215.614746l-2.014648,2.01416c-.195312.195312-.511719.195312-.707031,0s-.195312-.511719,0-.707031l2.014648-2.01416c.547363-.547852,1.258789-.870117,2.00293-.906738.762695-.035645,1.467773.226562,1.98584.745117.517578.517578.782227,1.222656.744629,1.985352-.036621.744141-.358887,1.455566-.906738,2.00293l-1.773438,1.773926c-.097656.097656-.225586.146484-.353516.146484Z"/>
      <path class="cls-1" d="M4.536489,13.831055c-.708008,0-1.35791-.263184-1.843262-.748535-1.055176-1.055176-.982422-2.844238.161621-3.988281l1.630371-1.630371c.195312-.195312.511719-.195312.707031,0s.195312.511719,0,.707031l-1.630371,1.630371c-.754395.754395-.82666,1.90918-.161621,2.574219.31543.31543.748535.481445,1.229004.453125.495605-.024414.973633-.242676,1.345703-.614746l1.879883-1.879883c.195312-.195312.511719-.195312.707031,0s.195312.511719,0,.707031l-1.879883,1.879883c-.547852.547852-1.259277.870117-2.003418.906738-.047852.001953-.095215.003418-.14209.003418Z"/>
      <rect class="cls-1" x="4.525773" y="7.750109" width="6" height="1" rx=".499999" ry=".499999" transform="translate(-3.62946 7.737926) rotate(-45)"/>
    </g>
  </g>
</svg>