<svg xmlns="http://www.w3.org/2000/svg" width="18" height="18" viewBox="0 0 18 18">
  <g id="LTV分析" transform="translate(0 0)">
    <rect id="矩形_122" data-name="矩形 122" width="18" height="18" transform="translate(0 0)" fill="none"/>
    <g id="组_2467" data-name="组 2467" transform="translate(1.825 3.546)">
      <g id="组_2466" data-name="组 2466" transform="translate(2.828 2.185)">
        <path id="直线_580" data-name="直线 580" d="M0,6.972a.75.75,0,0,1-.75-.75V0A.75.75,0,0,1,0-.75.75.75,0,0,1,.75,0V6.222A.75.75,0,0,1,0,6.972Z" />
        <path id="直线_581" data-name="直线 581" d="M0,6.972a.75.75,0,0,1-.75-.75V0A.75.75,0,0,1,0-.75.75.75,0,0,1,.75,0V6.222A.75.75,0,0,1,0,6.972Z" transform="translate(3.894)" />
        <path id="直线_582" data-name="直线 582" d="M0,6.972a.753.753,0,0,1-.147-.015.75.75,0,0,1-.589-.882L.5-.146a.75.75,0,0,1,.882-.589.75.75,0,0,1,.589.882L.736,6.368A.75.75,0,0,1,0,6.972Z" transform="translate(8.096)" />
        <path id="直线_583" data-name="直线 583" d="M1.237,6.972a.75.75,0,0,1-.735-.6L-.736.146A.75.75,0,0,1-.146-.736a.75.75,0,0,1,.882.589L1.974,6.076a.751.751,0,0,1-.736.9Z" transform="translate(6.842)" />
        <path id="直线_584" data-name="直线 584" d="M1.722.75H0A.75.75,0,0,1-.75,0,.75.75,0,0,1,0-.75H1.722a.75.75,0,0,1,.75.75A.75.75,0,0,1,1.722.75Z" transform="translate(0 6.222)" />
        <path id="直线_585" data-name="直线 585" d="M2.436.75H0A.75.75,0,0,1-.75,0,.75.75,0,0,1,0-.75H2.436a.75.75,0,0,1,.75.75A.75.75,0,0,1,2.436.75Z" transform="translate(2.676)" />
      </g>
      <path id="矩形_1168" data-name="矩形 1168" d="M0-.75H14.352A.75.75,0,0,1,15.1,0V10.6a.75.75,0,0,1-.75.75H0a.75.75,0,0,1-.75-.75V0A.75.75,0,0,1,0-.75ZM13.6.75H.75v9.1H13.6Z" />
    </g>
  </g>
</svg>
