<svg xmlns="http://www.w3.org/2000/svg" width="18" height="18" viewBox="0 0 18 18">
  <g id="操作手册" transform="translate(-336.927 -73.669)">
    <rect id="矩形_122" data-name="矩形 122" width="18" height="18" transform="translate(336.927 73.669)" fill="none"/>
    <rect id="矩形_123" data-name="矩形 123" width="14" height="14" transform="translate(338.927 75.669)" fill="none"/>
    <path id="路径_640" data-name="路径 640" d="M0-.75H10.079a.75.75,0,0,1,.75.75V12.949a.75.75,0,0,1-.75.75H0a.75.75,0,0,1-.75-.75V0A.75.75,0,0,1,0-.75ZM9.329.75H.75V12.2H9.329Z" transform="translate(342.236 76.181)" />
    <path id="矩形_1091" data-name="矩形 1091" d="M0-.75H3.778a.75.75,0,0,1,.75.75V5.06a.75.75,0,0,1-.75.75H0a.75.75,0,0,1-.75-.75V0A.75.75,0,0,1,0-.75ZM3.028.75H.75V4.31H3.028Z" transform="translate(345.039 76.181)" />
    <path id="直线_782" data-name="直线 782" d="M0,11.139a.75.75,0,0,1-.75-.75V0A.75.75,0,0,1,0-.75.75.75,0,0,1,.75,0V10.389A.75.75,0,0,1,0,11.139Z" transform="translate(339.537 77.685)" />
  </g>
</svg>
