<svg xmlns="http://www.w3.org/2000/svg" width="18" height="18" viewBox="0 0 18 18">
  <g id="成员管理" transform="translate(-48.92 -100.152)">
    <rect id="矩形_122" data-name="矩形 122" width="18" height="18" transform="translate(48.92 100.152)" fill="none"/>
    <path id="矩形_123" data-name="矩形 123" d="M50.92,102.124h14v14h-14Z" fill="none"/>
    <g id="组_278" data-name="组 278">
      <path id="椭圆_23" data-name="椭圆 23" d="M3.444-.75A4.194,4.194,0,1,1-.75,3.444,4.2,4.2,0,0,1,3.444-.75Zm0,6.889A2.694,2.694,0,1,0,.75,3.444,2.7,2.7,0,0,0,3.444,6.139Z" transform="translate(54.475 102.667)" />
      <path id="路径_37" data-name="路径 37" d="M63.73,116.331a.75.75,0,0,1-.749-.721,5.065,5.065,0,0,0-5.257-4.866,5.089,5.089,0,0,0-4.868,4.866.75.75,0,1,1-1.5-.058,6.566,6.566,0,0,1,13.122,0,.75.75,0,0,1-.721.778Z" />
    </g>
  </g>
</svg>
