<svg id="展开" xmlns="http://www.w3.org/2000/svg" width="18" height="18" viewBox="0 0 18 18">
  <rect id="矩形_1103" data-name="矩形 1103" width="18" height="18" fill="none"/>
  <g id="向上收起_fold-up-one_1_" data-name="向上收起_fold-up-one (1)" transform="translate(3 15.317) rotate(-90)">
    <path id="路径_623" data-name="路径 623" d="M12.633.75H0A.75.75,0,0,1-.75,0,.75.75,0,0,1,0-.75H12.633a.75.75,0,0,1,.75.75A.75.75,0,0,1,12.633.75Z" transform="translate(0 11.528)" />
    <path id="路径_624" data-name="路径 624" d="M12.633.75H0A.75.75,0,0,1-.75,0,.75.75,0,0,1,0-.75H12.633a.75.75,0,0,1,.75.75A.75.75,0,0,1,12.633.75Z" transform="translate(0 8.019)" />
    <path id="路径_625" data-name="路径 625" d="M6.317,5.663a.749.749,0,0,1-.46-.158L-.46.592A.75.75,0,0,1-.592-.46.75.75,0,0,1,.46-.592L6.317,3.963,12.173-.592a.75.75,0,0,1,1.052.132A.75.75,0,0,1,13.094.592L6.777,5.505A.749.749,0,0,1,6.317,5.663Z" transform="translate(0)" />
  </g>
</svg>
