<svg xmlns="http://www.w3.org/2000/svg" width="18" height="18" viewBox="0 0 18 18">
  <g id="组_3365" data-name="组 3365" transform="translate(-36.296 -65.231)">
    <rect id="矩形_122" data-name="矩形 122" width="18" height="18" transform="translate(36.296 65.231)" fill="none"/>
    <g id="组_4006" data-name="组 4006" transform="translate(0.062 0.194)">
      <path id="直线_788" data-name="直线 788" d="M9.2.75H0A.75.75,0,0,1-.75,0,.75.75,0,0,1,0-.75H9.2A.75.75,0,0,1,9.95,0,.75.75,0,0,1,9.2.75Z" transform="translate(42.852 68.037)"/>
      <path id="直线_901" data-name="直线 901" d="M1.5.75H0A.75.75,0,0,1-.75,0,.75.75,0,0,1,0-.75H1.5A.75.75,0,0,1,2.25,0,.75.75,0,0,1,1.5.75Z" transform="translate(38.236 68.046)"/>
      <path id="直线_790" data-name="直线 790" d="M9.2.75H0A.75.75,0,0,1-.75,0,.75.75,0,0,1,0-.75H9.2A.75.75,0,0,1,9.95,0,.75.75,0,0,1,9.2.75Z" transform="translate(42.852 74.231)"/>
      <path id="直线_902" data-name="直线 902" d="M1.5.75H0A.75.75,0,0,1-.75,0,.75.75,0,0,1,0-.75H1.5A.75.75,0,0,1,2.25,0,.75.75,0,0,1,1.5.75Z" transform="translate(38.236 74.241)"/>
      <path id="直线_792" data-name="直线 792" d="M9.2.75H0A.75.75,0,0,1-.75,0,.75.75,0,0,1,0-.75H9.2A.75.75,0,0,1,9.95,0,.75.75,0,0,1,9.2.75Z" transform="translate(42.852 80.407)"/>
      <path id="直线_903" data-name="直线 903" d="M1.5.75H0A.75.75,0,0,1-.75,0,.75.75,0,0,1,0-.75H1.5A.75.75,0,0,1,2.25,0,.75.75,0,0,1,1.5.75Z" transform="translate(38.236 80.417)"/>
    </g>
  </g>
</svg>
