<svg xmlns="http://www.w3.org/2000/svg" width="28" height="28" viewBox="0 0 28 28">
  <g id="消息通知" transform="translate(-1612 -247.625)">
    <rect id="矩形_128" data-name="矩形 128" width="28" height="28" rx="2" transform="translate(1612 247.625)" fill="none"/>
    <g id="组_269" data-name="组 269" transform="translate(685.738 85.225)">
      <path id="路径_29" data-name="路径 29" d="M939.757,183.862h-.028a2.966,2.966,0,0,1-2.962-2.963.75.75,0,1,1,1.5,0,1.464,1.464,0,0,0,1.462,1.463h.028a1.465,1.465,0,0,0,1.463-1.463.75.75,0,1,1,1.5,0A2.966,2.966,0,0,1,939.757,183.862Z" transform="translate(0.614 1.437)" />
      <path id="路径_30" data-name="路径 30" d="M946.954,182.467a.75.75,0,0,1-.75-.75v-6.586a5.348,5.348,0,0,0-5.377-5.307h-1.255a5.348,5.348,0,0,0-5.377,5.307v6.586a.75.75,0,0,1-1.5,0v-6.586a6.85,6.85,0,0,1,6.877-6.807h1.255a6.85,6.85,0,0,1,6.877,6.807v6.586A.75.75,0,0,1,946.954,182.467Z" transform="translate(0.158 0.113)" />
      <path id="直线_31" data-name="直线 31" d="M16.644.75H0A.75.75,0,0,1-.75,0,.75.75,0,0,1,0-.75H16.644a.75.75,0,0,1,.75.75A.75.75,0,0,1,16.644.75Z" transform="translate(932.033 181.83)" />
      <path id="直线_32" data-name="直线 32" d="M0,1.631A.75.75,0,0,1-.75.881V0A.75.75,0,0,1,0-.75.75.75,0,0,1,.75,0V.881A.75.75,0,0,1,0,1.631Z" transform="translate(940.357 168.069)" />
    </g>
  </g>
</svg>
