<svg xmlns="http://www.w3.org/2000/svg" xmlns:xlink="http://www.w3.org/1999/xlink" width="28" height="28" viewBox="0 0 28 28">
  <defs>
    <clipPath id="clip-path">
      <rect width="22" height="22" fill="none"/>
    </clipPath>
  </defs>
  <g id="组_2914" data-name="组 2914" transform="translate(-1612 -247.625)">
    <rect id="矩形_128" data-name="矩形 128" width="28" height="28" rx="2" transform="translate(1612 247.625)" fill="none"/>
    <g id="重复网格_278" data-name="重复网格 278" transform="translate(1615 250.625)" clip-path="url(#clip-path)">
      <g transform="translate(-277 -7)">
        <rect id="矩形_1043" data-name="矩形 1043" width="4" height="4" transform="translate(277 7)" />
      </g>
      <g transform="translate(-268 -7)">
        <rect id="矩形_1043-2" data-name="矩形 1043" width="4" height="4" transform="translate(277 7)" />
      </g>
      <g transform="translate(-259 -7)">
        <rect id="矩形_1043-3" data-name="矩形 1043" width="4" height="4" transform="translate(277 7)" />
      </g>
      <g transform="translate(-277 2)">
        <rect id="矩形_1043-4" data-name="矩形 1043" width="4" height="4" transform="translate(277 7)" />
      </g>
      <g transform="translate(-268 2)">
        <rect id="矩形_1043-5" data-name="矩形 1043" width="4" height="4" transform="translate(277 7)" />
      </g>
      <g transform="translate(-259 2)">
        <rect id="矩形_1043-6" data-name="矩形 1043" width="4" height="4" transform="translate(277 7)" />
      </g>
      <g transform="translate(-277 11)">
        <rect id="矩形_1043-7" data-name="矩形 1043" width="4" height="4" transform="translate(277 7)" />
      </g>
      <g transform="translate(-268 11)">
        <rect id="矩形_1043-8" data-name="矩形 1043" width="4" height="4" transform="translate(277 7)" />
      </g>
      <g transform="translate(-259 11)">
        <rect id="矩形_1043-9" data-name="矩形 1043" width="4" height="4" transform="translate(277 7)" />
      </g>
    </g>
  </g>
</svg>
