<svg xmlns="http://www.w3.org/2000/svg" width="18" height="18" viewBox="0 0 18 18">
  <g id="移动" transform="translate(-525.164 -384.148)">
    <rect id="矩形_122" data-name="矩形 122" width="18" height="18" transform="translate(525.164 384.148)" fill="none"/>
    <g id="组_4866" data-name="组 4866">
      <path id="路径_830" data-name="路径 830" d="M528.148,386.213h2.407a.75.75,0,0,1,.552.242l2.073,2.255h7.374a.75.75,0,0,1,.75.75v9.973a.75.75,0,0,1-.75.75H528.148a.75.75,0,0,1-.75-.75v-12.47A.75.75,0,0,1,528.148,386.213Zm2.078,1.5H528.9v10.97h10.907V390.21h-6.954a.75.75,0,0,1-.552-.242Z" />
      <path id="直线_1078" data-name="直线 1078" d="M5.778.75H0A.75.75,0,0,1-.75,0,.75.75,0,0,1,0-.75H5.778a.75.75,0,0,1,.75.75A.75.75,0,0,1,5.778.75Z" transform="translate(530.888 394.333)" />
      <path id="直线_1079" data-name="直线 1079" d="M0,3.041a.748.748,0,0,1-.53-.22.75.75,0,0,1,0-1.061L1.76-.53a.75.75,0,0,1,1.061,0,.75.75,0,0,1,0,1.061L.53,2.821A.748.748,0,0,1,0,3.041Z" transform="translate(535.52 394.333)" />
      <path id="直线_1080" data-name="直线 1080" d="M2.291,3.041a.748.748,0,0,1-.53-.22L-.53.53A.75.75,0,0,1-.53-.53.75.75,0,0,1,.53-.53L2.821,1.76a.75.75,0,0,1-.53,1.28Z" transform="translate(535.52 392.043)" />
    </g>
  </g>
</svg>
