<svg xmlns="http://www.w3.org/2000/svg" width="20" height="18" viewBox="0 0 20 18">
  <g id="拖动" transform="translate(-176 -333)">
    <path id="直线_962" data-name="直线 962" d="M18,1H0A1,1,0,0,1-1,0,1,1,0,0,1,0-1H18a1,1,0,0,1,1,1A1,1,0,0,1,18,1Z" transform="translate(177 334)"/>
    <path id="直线_963" data-name="直线 963" d="M18,1H0A1,1,0,0,1-1,0,1,1,0,0,1,0-1H18a1,1,0,0,1,1,1A1,1,0,0,1,18,1Z" transform="translate(177 342)"/>
    <path id="直线_964" data-name="直线 964" d="M18,1H0A1,1,0,0,1-1,0,1,1,0,0,1,0-1H18a1,1,0,0,1,1,1A1,1,0,0,1,18,1Z" transform="translate(177 350)"/>
  </g>
</svg>
