<?xml version="1.0" encoding="UTF-8"?>
<svg id="_图层_1" data-name="图层 1" xmlns="http://www.w3.org/2000/svg" version="1.1" viewBox="0 0 48 48">
  <rect width="48" height="48" fill="#000" opacity="0" stroke-width="0"/>
  <path d="M39,18.5h-.5c-.3-7.8-6.6-14-14.5-14s-14.2,6.2-14.5,14h-.5c-2.5,0-4.5,2-4.5,4.5v16c0,2.5,2,4.5,4.5,4.5h30c2.5,0,4.5-2,4.5-4.5v-16c0-2.5-2-4.5-4.5-4.5ZM24,7.5c6.2,0,11.2,4.9,11.5,11H12.5c.3-6.1,5.3-11,11.5-11ZM40.5,39c0,.8-.7,1.5-1.5,1.5H9c-.8,0-1.5-.7-1.5-1.5v-16c0-.8.7-1.5,1.5-1.5h30c.8,0,1.5.7,1.5,1.5v16Z" fill="#000" stroke-width="0"/>
  <rect x="22.5" y="27" width="3" height="8" rx="1.5" ry="1.5" fill="#000" stroke-width="0"/>
</svg>