<?xml version="1.0" encoding="UTF-8"?>
<svg id="_图层_1" data-name="图层 1" xmlns="http://www.w3.org/2000/svg" version="1.1" viewBox="0 0 20 20">
  <defs>
    <style>
      .cls-1 {
        stroke-width: 0px;
      }
    </style>
  </defs>
  <path class="cls-1" d="M15.5,18.5H4.6c-.9,0-1.7-.7-1.7-1.7V3.1c0-.9.7-1.7,1.7-1.7h5.9c.4,0,.7.3.7.8s-.3.8-.7.8h-5.9c0,0-.2,0-.2.2v13.7c0,0,0,.2.2.2h10.9c0,0,.2,0,.2-.2v-8c0-.4.3-.8.8-.8s.8.3.8.8v8c0,.9-.7,1.7-1.7,1.7Z"/>
  <rect class="cls-1" x="5.4" y="10.6" width="6.4" height="1.5" rx=".7" ry=".7"/>
  <rect class="cls-1" x="5.4" y="7.2" width="3.6" height="1.5" rx=".7" ry=".7"/>
  <rect class="cls-1" x="5.4" y="14.1" width="9.1" height="1.5" rx=".7" ry=".7"/>
  <rect class="cls-1" x="11" y="3.6" width="6.7" height="1.5" rx=".8" ry=".8" transform="translate(1.1 11.4) rotate(-45)"/>
</svg>