<svg xmlns="http://www.w3.org/2000/svg" width="18" height="18" viewBox="0 0 18 18">
  <g id="发布11" transform="translate(-58.88 -96.466)">
    <rect id="矩形_122" data-name="矩形 122" width="18" height="18" transform="translate(58.88 96.466)" fill="none"/>
    <path id="路径_651" data-name="路径 651" d="M72.671,112.345a.75.75,0,0,1-.386-.107l-3.422-2.053a.75.75,0,1,1,.772-1.286l2.386,1.432.787-9.693-9.2,4.849,1.807,1.115a.75.75,0,0,1-.788,1.277l-2.924-1.8a.75.75,0,0,1,.044-1.3l11.573-6.1a.75.75,0,0,1,1.1.724l-1,12.257a.75.75,0,0,1-.748.689Z" />
    <path id="路径_652" data-name="路径 652" d="M66.886,112.345l-.057,0a.75.75,0,0,1-.691-.8l.249-3.3a.75.75,0,0,1,.147-.392l6-8.047a.75.75,0,1,1,1.2.9l-5.871,7.872-.232,3.08A.75.75,0,0,1,66.886,112.345Z" />
  </g>
</svg>
