<svg xmlns="http://www.w3.org/2000/svg" width="16" height="16" viewBox="0 0 16 16">
  <g id="刷新_refresh" data-name="刷新 refresh" transform="translate(-471.121 -247.019)">
    <rect id="矩形_122" data-name="矩形 122" width="16" height="16" rx="2" transform="translate(471.121 247.019)" fill="none"/>
    <path id="路径_69" data-name="路径 69" d="M485.361,255.768a.75.75,0,0,1-.75-.75v-5.53a.75.75,0,1,1,1.5,0v5.53A.75.75,0,0,1,485.361,255.768Z"/>
    <path id="路径_70" data-name="路径 70" d="M472.917,261.3a.75.75,0,0,1-.75-.75v-5.53a.75.75,0,1,1,1.5,0v5.53A.75.75,0,0,1,472.917,261.3Z"/>
    <path id="路径_71" data-name="路径 71" d="M479.137,261.991a6.972,6.972,0,0,1-6.97-6.973.75.75,0,0,1,.75-.75h0a.75.75,0,0,1,.75.75,5.471,5.471,0,0,0,9.272,3.937.75.75,0,0,1,1.042,1.079A6.94,6.94,0,0,1,479.137,261.991Z"/>
    <path id="路径_72" data-name="路径 72" d="M485.361,255.768a.75.75,0,0,1-.75-.75,5.471,5.471,0,0,0-9.409-3.8.75.75,0,1,1-1.079-1.042,6.971,6.971,0,0,1,11.989,4.841A.75.75,0,0,1,485.361,255.768Z"/>
  </g>
</svg>
