<svg xmlns="http://www.w3.org/2000/svg" width="18" height="18" viewBox="0 0 18 18">
  <g id="刷新" transform="translate(-217.914 -245.213)">
    <rect id="矩形_122" data-name="矩形 122" width="18" height="18" transform="translate(217.914 245.213)" fill="none"/>
    <g id="刷新_refresh" data-name="刷新 refresh">
      <path id="路径_69" data-name="路径 69" d="M233.128,254.962a.75.75,0,0,1-.75-.75v-5.507a.75.75,0,0,1,1.5,0v5.507A.75.75,0,0,1,233.128,254.962Z" />
      <path id="路径_70" data-name="路径 70" d="M220.737,260.469a.75.75,0,0,1-.75-.75v-5.507a.75.75,0,0,1,1.5,0v5.507A.75.75,0,0,1,220.737,260.469Z" />
      <path id="路径_71" data-name="路径 71" d="M226.931,261.159a6.945,6.945,0,0,1-6.944-6.947.75.75,0,0,1,.75-.75h0a.75.75,0,0,1,.75.75,5.444,5.444,0,0,0,9.227,3.918.75.75,0,0,1,1.042,1.079A6.91,6.91,0,0,1,226.931,261.159Z" />
      <path id="路径_72" data-name="路径 72" d="M233.128,254.962h0a.75.75,0,0,1-.75-.75,5.444,5.444,0,0,0-5.445-5.445h0a5.47,5.47,0,0,0-3.915,1.664.75.75,0,1,1-1.079-1.042,6.977,6.977,0,0,1,4.994-2.122h0a6.944,6.944,0,0,1,6.945,6.945A.75.75,0,0,1,233.128,254.962Z" />
    </g>
  </g>
</svg>
