<svg xmlns="http://www.w3.org/2000/svg" width="18" height="18" viewBox="0 0 18 18">
  <g id="每日LTV" transform="translate(-302.255 -384.228)">
    <rect id="矩形_122" data-name="矩形 122" width="18" height="18" transform="translate(302.255 384.228)" fill="none"/>
    <path id="路径_127" data-name="路径 127" d="M317.481,400.187H305.029a.75.75,0,0,1-.75-.75V387.02a.75.75,0,0,1,1.5,0v11.667h11.7a.75.75,0,0,1,0,1.5Z" />
    <path id="路径_128" data-name="路径 128" d="M307.133,395.193a.75.75,0,0,1-.53-1.28l2.065-2.065a.75.75,0,0,1,1.061,0l.589.589,3.306-3.306a.75.75,0,0,1,1.061,0l3.283,3.282a.75.75,0,0,1-1.06,1.061l-2.753-2.752-3.306,3.306a.75.75,0,0,1-1.061,0l-.589-.589-1.535,1.535A.748.748,0,0,1,307.133,395.193Z" />
  </g>
</svg>
