<svg xmlns="http://www.w3.org/2000/svg" width="18" height="18" viewBox="0 0 18 18">
  <g id="第N日LTV" transform="translate(-279.366 -384.228)">
    <rect id="矩形_122" data-name="矩形 122" width="18" height="18" transform="translate(279.366 384.228)" fill="none"/>
    <path id="路径_125" data-name="路径 125" d="M294.575,400.169H282.158a.75.75,0,0,1-.75-.75V387.037a.75.75,0,0,1,1.5,0v11.632h11.667a.75.75,0,0,1,0,1.5Z" />
    <path id="路径_126" data-name="路径 126" d="M284.248,395.374a.75.75,0,0,1-.53-1.28l3.188-3.188a.75.75,0,0,1,.53-.22h0a.75.75,0,0,1,.53.22l2.551,2.552L294,389.971a.75.75,0,0,1,1.061,1.061l-4.017,4.017a.75.75,0,0,1-.53.22h0a.75.75,0,0,1-.53-.22l-2.551-2.552-2.658,2.658A.748.748,0,0,1,284.248,395.374Z" />
  </g>
</svg>
