<svg xmlns="http://www.w3.org/2000/svg" width="18" height="18" viewBox="0 0 18 18">
  <g id="留存分析" transform="translate(0 0)">
    <rect id="矩形_122" data-name="矩形 122" width="18" height="18" transform="translate(0 0)" fill="none"/>
    <g id="组_325" data-name="组 325" transform="translate(2.744 2.742)">
      <path id="椭圆_28" data-name="椭圆 28" d="M2.878-.75A3.628,3.628,0,1,1-.75,2.878,3.632,3.632,0,0,1,2.878-.75Zm0,5.756A2.128,2.128,0,1,0,.75,2.878,2.13,2.13,0,0,0,2.878,5.006Z" transform="translate(2.279)" />
      <path id="路径_88" data-name="路径 88" d="M133.841,196.859a.75.75,0,0,1-.75-.75,8.627,8.627,0,0,1,1.64-5.208A5.339,5.339,0,0,1,139,188.632a.75.75,0,0,1,0,1.5,3.876,3.876,0,0,0-3.073,1.677,7.124,7.124,0,0,0-1.334,4.3A.75.75,0,0,1,133.841,196.859Z" transform="translate(-133.841 -183.625)" />
      <path id="椭圆_29" data-name="椭圆 29" d="M3.045-.75a3.8,3.8,0,1,1-3.8,3.8A3.8,3.8,0,0,1,3.045-.75Zm0,6.091a2.3,2.3,0,1,0-2.3-2.3A2.3,2.3,0,0,0,3.045,5.341Z" transform="translate(6.422 6.394)" />
      <path id="路径_89" data-name="路径 89" d="M143.262,194.55a.748.748,0,0,1-.481-.174l-.971-.811a.75.75,0,0,1,.962-1.151l.445.371L144,192a.75.75,0,1,1,1.061,1.061l-1.269,1.269A.749.749,0,0,1,143.262,194.55Z" transform="translate(-133.841 -183.625)" />
    </g>
  </g>
</svg>
