<svg xmlns="http://www.w3.org/2000/svg" width="18" height="18.362" viewBox="0 0 18 18.362">
  <g id="角色管理" transform="translate(-77.216 -100.152)">
    <rect id="矩形_122" data-name="矩形 122" width="18" height="18" transform="translate(77.216 100.152)" fill="none"/>
    <path id="矩形_123" data-name="矩形 123" d="M79.216,102.124h14v14h-14Z" fill="none"/>
    <path id="椭圆_23" data-name="椭圆 23" d="M3.444-.75A4.194,4.194,0,1,1-.75,3.444,4.2,4.2,0,0,1,3.444-.75Zm0,6.889A2.694,2.694,0,1,0,.75,3.444,2.7,2.7,0,0,0,3.444,6.139Z" transform="translate(82.771 102.667)" />
    <path id="路径_37" data-name="路径 37" d="M79.891,116.392h-.03a.75.75,0,0,1-.72-.778,7.081,7.081,0,0,1,6.8-6.8.75.75,0,0,1,.058,1.5,5.608,5.608,0,0,0-5.362,5.362A.75.75,0,0,1,79.891,116.392Z" />
    <path id="路径_409" data-name="路径 409" d="M2.537-.75a.75.75,0,0,1,.375.1L5.449.815a.75.75,0,0,1,.375.65v2.93a.75.75,0,0,1-.375.65L2.912,6.509a.75.75,0,0,1-.75,0L-.375,5.044a.75.75,0,0,1-.375-.65V1.465A.75.75,0,0,1-.375.815L2.162-.65A.75.75,0,0,1,2.537-.75ZM4.324,1.9,2.537.866.75,1.9V3.961L2.537,4.993,4.324,3.961Z" transform="matrix(0.875, 0.485, -0.485, 0.875, 89.048, 109.91)" />
  </g>
</svg>
