<svg xmlns="http://www.w3.org/2000/svg" width="16" height="16" viewBox="0 0 16 16">
  <g id="暂存" transform="translate(-82.943 -280.034)">
    <rect id="矩形_122" data-name="矩形 122" width="16" height="16" transform="translate(82.943 280.034)" fill="none"/>
    <path id="路径_775" data-name="路径 775" d="M84.731,281h8.01a.75.75,0,0,1,.53.22l4.42,4.42a.75.75,0,0,1,.22.53v8.13a.75.75,0,0,1-.75.75H84.731a.75.75,0,0,1-.75-.75v-12.55A.75.75,0,0,1,84.731,281Zm7.7,1.5H85.481v11.05h10.93v-7.069Z"/>
    <path id="矩形_1278" data-name="矩形 1278" d="M0-.75H4A.75.75,0,0,1,4.75,0V3.139a.75.75,0,0,1-.75.75H0a.75.75,0,0,1-.75-.75V0A.75.75,0,0,1,0-.75ZM3.25.75H.75V2.389h2.5Z" transform="translate(87.119 281.75)"/>
    <path id="矩形_1279" data-name="矩形 1279" d="M0-.75H7.418a.75.75,0,0,1,.75.75V3.139a.75.75,0,0,1-.75.75H0a.75.75,0,0,1-.75-.75V0A.75.75,0,0,1,0-.75ZM6.668.75H.75V2.389H6.668Z" transform="translate(87.237 291.157)"/>
  </g>
</svg>
