<svg xmlns="http://www.w3.org/2000/svg" width="16" height="16" viewBox="0 0 16 16">
  <g id="保存草稿" transform="translate(-407.444 -247.164)">
    <rect id="矩形_122" data-name="矩形 122" width="16" height="16" rx="2" transform="translate(407.444 247.164)" fill="none"/>
    <path id="路径_742" data-name="路径 742" d="M409.15,255.476h4.138a.75.75,0,0,1,.745.836,1.19,1.19,0,0,0,0,.13,1.414,1.414,0,0,0,2.828,0c0-.056,0-.1,0-.139a.75.75,0,0,1,.746-.826h4.146a.75.75,0,0,1,.75.75v5.168a.75.75,0,0,1-.75.75h-12.6a.75.75,0,0,1-.75-.75v-5.168A.75.75,0,0,1,409.15,255.476Zm3.428,1.5H409.9v3.668h11.1v-3.668h-2.687a2.914,2.914,0,0,1-5.73,0Z" />
    <path id="路径_743" data-name="路径 743" d="M413.288,256.976h-2.043a.75.75,0,0,1-.75-.75v-4.2a.75.75,0,0,1,1.5,0v3.449h1.293a.75.75,0,1,1,0,1.5Z" />
    <path id="路径_744" data-name="路径 744" d="M419.642,256.976H417.6a.75.75,0,0,1,0-1.5h1.293v-5.962h-4.375a.75.75,0,0,1,0-1.5h5.125a.75.75,0,0,1,.75.75v7.462A.75.75,0,0,1,419.642,256.976Z" />
    <path id="路径_745" data-name="路径 745" d="M414.516,248.02a.75.75,0,0,1,.75.75v3.26a.75.75,0,0,1-.75.75h-3.267a.75.75,0,0,1-.53-1.281l3.267-3.26A.75.75,0,0,1,414.516,248.02Zm-.75,3.26v-.7l-.7.7Z" />
  </g>
</svg>
