<svg xmlns="http://www.w3.org/2000/svg" width="16" height="16" viewBox="0 0 16 16">
  <g id="保存报表" transform="translate(-37.738 -280.034)">
    <rect id="矩形_122" data-name="矩形 122" width="16" height="16" transform="translate(37.738 280.034)" fill="none"/>
    <g id="组_4358" data-name="组 4358">
      <path id="路径_768" data-name="路径 768" d="M50.3,294.93h-8.89a1.605,1.605,0,0,1-1.635-1.57V282.712a1.608,1.608,0,0,1,1.638-1.573h6.011a1.8,1.8,0,0,1,1.266.525l2.876,2.881a1.78,1.78,0,0,1,.522,1.264v7.332A1.791,1.791,0,0,1,50.3,294.93Zm-8.887-12.291c-.086,0-.138.051-.138.073V293.36c0,.018.046.07.135.07H50.3a.289.289,0,0,0,.289-.289v-7.332a.293.293,0,0,0-.085-.2l-2.875-2.88a.293.293,0,0,0-.205-.085Z"/>
      <path id="直线_1004" data-name="直线 1004" d="M0,5.549A.75.75,0,0,1-.75,4.8V0A.75.75,0,0,1,0-.75.75.75,0,0,1,.75,0V4.8A.75.75,0,0,1,0,5.549Z" transform="translate(43.146 285.089)"/>
      <path id="直线_1005" data-name="直线 1005" d="M0,3.778a.75.75,0,0,1-.75-.75V0A.75.75,0,0,1,0-.75.75.75,0,0,1,.75,0V3.028A.75.75,0,0,1,0,3.778Z" transform="translate(45.927 286.86)"/>
      <path id="直线_1006" data-name="直线 1006" d="M0,1.563A.75.75,0,0,1-.75.813V0A.75.75,0,0,1,0-.75.75.75,0,0,1,.75,0V.813A.75.75,0,0,1,0,1.563Z" transform="translate(48.554 289.074)"/>
      <path id="直线_1007" data-name="直线 1007" d="M5.409.75H0A.75.75,0,0,1-.75,0,.75.75,0,0,1,0-.75H5.409a.75.75,0,0,1,.75.75A.75.75,0,0,1,5.409.75Z" transform="translate(43.146 291.963)"/>
    </g>
  </g>
</svg>
