<svg xmlns="http://www.w3.org/2000/svg" width="16" height="16" viewBox="0 0 16 16">
  <g id="另存为" transform="translate(-439.418 -247.164)">
    <rect id="矩形_122" data-name="矩形 122" width="16" height="16" rx="2" transform="translate(439.418 247.164)" fill="none"/>
    <path id="路径_758" data-name="路径 758" d="M450.037,262.1h-8.924a.75.75,0,0,1-.75-.75v-12.5a.75.75,0,0,1,.75-.75h12.5a.75.75,0,0,1,.75.75v5.278a.75.75,0,0,1-1.5,0V249.6h-11v11h8.174a.75.75,0,0,1,0,1.5Z"/>
    <path id="矩形_1266" data-name="矩形 1266" d="M0-.75H6.989a.75.75,0,0,1,.75.75V3.416a.75.75,0,0,1-.75.75H0a.75.75,0,0,1-.75-.75V0A.75.75,0,0,1,0-.75ZM6.239.75H.75V2.666H6.239Z" transform="translate(443.869 248.848)"/>
    <path id="路径_759" data-name="路径 759" d="M451.667,260.876a.75.75,0,0,1-.53-1.28l1.42-1.42-1.42-1.42A.75.75,0,0,1,452.2,255.7l1.95,1.95a.75.75,0,0,1,0,1.061l-1.95,1.95A.748.748,0,0,1,451.667,260.876Z"/>
    <path id="直线_980" data-name="直线 980" d="M6.369.75H0A.75.75,0,0,1-.75,0,.75.75,0,0,1,0-.75H6.369a.75.75,0,0,1,.75.75A.75.75,0,0,1,6.369.75Z" transform="translate(447.068 258.128)"/>
  </g>
</svg>
