<svg xmlns="http://www.w3.org/2000/svg" width="18" height="18" viewBox="0 0 18 18">
  <g id="分布分析" transform="translate(0 0)">
    <rect id="矩形_122" data-name="矩形 122" width="18" height="18" transform="translate(0 0)" fill="none"/>
    <g id="组_321" data-name="组 321" transform="translate(2.752 2.891)">
      <path id="路径_83" data-name="路径 83" d="M185.937,183.024a.75.75,0,0,1,.375.1l2.39,1.38a.75.75,0,0,1,.375.65v2.761a.75.75,0,0,1-.375.649l-2.39,1.381a.75.75,0,0,1-.75,0l-2.39-1.381a.75.75,0,0,1-.375-.649v-2.761a.75.75,0,0,1,.375-.65l2.39-1.38A.75.75,0,0,1,185.937,183.024Zm1.64,2.563-1.64-.947-1.64.947v1.9l1.64.948,1.64-.948Z" transform="translate(-179.678 -183.774)" />
      <path id="路径_84" data-name="路径 84" d="M189.795,189.706a.75.75,0,0,1,.375.1l2.39,1.38a.75.75,0,0,1,.375.649V194.6a.75.75,0,0,1-.375.65l-2.39,1.38a.75.75,0,0,1-.75,0l-2.39-1.38a.75.75,0,0,1-.375-.65v-2.761a.75.75,0,0,1,.375-.649l2.39-1.38A.75.75,0,0,1,189.795,189.706Zm1.64,2.563-1.64-.947-1.64.947v1.9l1.64.947,1.64-.947Z" transform="translate(-179.678 -183.774)" />
      <path id="路径_85" data-name="路径 85" d="M182.068,189.706a.75.75,0,0,1,.375.1l2.39,1.38a.75.75,0,0,1,.375.649V194.6a.75.75,0,0,1-.375.65l-2.39,1.38a.75.75,0,0,1-.75,0l-2.39-1.38a.75.75,0,0,1-.375-.65v-2.761a.75.75,0,0,1,.375-.649l2.39-1.38A.75.75,0,0,1,182.068,189.706Zm1.64,2.563-1.64-.947-1.64.947v1.9l1.64.947,1.64-.947Z" transform="translate(-179.678 -183.774)" />
    </g>
  </g>
</svg>
