<svg xmlns="http://www.w3.org/2000/svg" width="28" height="28" viewBox="0 0 28 28">
  <g id="组_5143" data-name="组 5143" transform="translate(-144.148 -93.089)">
    <rect id="矩形_122" data-name="矩形 122" width="28" height="28" rx="2" transform="translate(144.148 93.089)" fill="none"/>
    <path id="路径_852" data-name="路径 852" d="M163.744,114.964a.75.75,0,0,1-.386-.107l-3.979-2.387a.75.75,0,0,1,.772-1.286l2.943,1.766.949-11.687L152.957,107.1l2.282,1.408a.75.75,0,1,1-.788,1.277l-3.4-2.1a.75.75,0,0,1,.044-1.3l13.456-7.09a.75.75,0,0,1,1.1.724l-1.157,14.251a.75.75,0,0,1-.748.689Z"/>
    <path id="路径_853" data-name="路径 853" d="M157.017,114.964l-.057,0a.75.75,0,0,1-.691-.8l.289-3.834a.75.75,0,0,1,.147-.392l6.977-9.356a.75.75,0,1,1,1.2.9l-6.847,9.181-.273,3.617A.75.75,0,0,1,157.017,114.964Z"/>
  </g>
</svg>
