<svg xmlns="http://www.w3.org/2000/svg" width="16" height="16" viewBox="0 0 16 16">
  <g id="设置111" transform="translate(-1536.002 -254.125)">
    <rect id="矩形_122" data-name="矩形 122" width="16" height="16" rx="2" transform="translate(1536.002 254.125)" fill="none"/>
    <g id="设置" transform="translate(500.088 135.637)">
      <path id="路径_563" data-name="路径 563" d="M1043.9,133.35a6.87,6.87,0,0,1-3.261-.823.75.75,0,0,1-.31-1,1.082,1.082,0,0,0-1.456-1.456.75.75,0,0,1-1-.31,6.865,6.865,0,0,1-.822-3.391.75.75,0,0,1,.687-.733,1.08,1.08,0,0,0,.672-1.84c-.026-.026-.052-.05-.078-.071a.75.75,0,0,1-.152-1,6.913,6.913,0,0,1,2.551-2.3.75.75,0,0,1,.891.147l.01.011a1.081,1.081,0,0,0,1.782-.422.75.75,0,0,1,.737-.508,6.874,6.874,0,0,1,3.123.883.75.75,0,0,1,.344.885,1.08,1.08,0,0,0,1.361,1.361.75.75,0,0,1,.885.344,6.874,6.874,0,0,1,.883,3.123.75.75,0,0,1-.507.737,1.081,1.081,0,0,0-.423,1.781l.01.01a.75.75,0,0,1,.149.892,6.912,6.912,0,0,1-2.3,2.551.75.75,0,0,1-1-.152,1.011,1.011,0,0,0-.07-.077,1.08,1.08,0,0,0-1.839.672.75.75,0,0,1-.733.686Zm-1.987-1.88a5.381,5.381,0,0,0,1.518.36,2.581,2.581,0,0,1,3.871-1.2q.2-.164.378-.344a5.378,5.378,0,0,0,.722-.9,2.584,2.584,0,0,1,.8-3.561,5.386,5.386,0,0,0-.416-1.5q-.074,0-.148,0a2.582,2.582,0,0,1-2.576-2.728,5.381,5.381,0,0,0-1.5-.416,2.584,2.584,0,0,1-3.562.8,5.383,5.383,0,0,0-.894.721q-.181.18-.345.379a2.58,2.58,0,0,1-1.2,3.871,5.374,5.374,0,0,0,.361,1.52,2.582,2.582,0,0,1,2.984,2.983Z" transform="translate(0 0)" />
      <path id="路径_564" data-name="路径 564" d="M1043.992,129.476a2.885,2.885,0,1,1,2.04-.845A2.866,2.866,0,0,1,1043.992,129.476Zm0-4.27a1.385,1.385,0,1,0,.979.406A1.376,1.376,0,0,0,1043.992,125.205Z" transform="translate(-0.091 -0.091)" />
    </g>
  </g>
</svg>
