<svg xmlns="http://www.w3.org/2000/svg" width="18" height="18" viewBox="0 0 18 18">
  <g id="组_4129" data-name="组 4129" transform="translate(-190.926 -245.461)">
    <rect id="矩形_122" data-name="矩形 122" width="18" height="18" transform="translate(190.926 245.461)" fill="none"/>
    <path id="路径_725" data-name="路径 725" d="M206.111,261.412h-12.4a.75.75,0,0,1-.75-.75v-12.4a.75.75,0,0,1,.75-.75h5.282a.75.75,0,1,1,0,1.5h-4.532v10.9h10.9v-4.532a.75.75,0,0,1,1.5,0v5.282A.75.75,0,0,1,206.111,261.412Z" />
    <path id="路径_726" data-name="路径 726" d="M206.111,252.688a.75.75,0,0,1-.75-.75v-2.929h-2.929a.75.75,0,0,1,0-1.5h3.679a.75.75,0,0,1,.75.75v3.679A.75.75,0,0,1,206.111,252.688Z" />
    <path id="直线_927" data-name="直线 927" d="M0,6.758a.748.748,0,0,1-.53-.22.75.75,0,0,1,0-1.061L5.477-.53a.75.75,0,0,1,1.061,0,.75.75,0,0,1,0,1.061L.53,6.538A.748.748,0,0,1,0,6.758Z" transform="translate(199.89 248.582)" />
  </g>
</svg>
