<svg xmlns="http://www.w3.org/2000/svg" width="18" height="18" viewBox="0 0 18 18">
  <g id="收起输入框" transform="translate(-376.444 -239.926)">
    <rect id="矩形_122" data-name="矩形 122" width="18" height="18" rx="2" transform="translate(376.444 239.926)" fill="none"/>
    <g id="向上收起_fold-up-one" data-name="向上收起 fold-up-one">
      <path id="路径_623" data-name="路径 623" d="M391.616,244.562H379.272a.75.75,0,0,1,0-1.5h12.344a.75.75,0,0,1,0,1.5Z"/>
      <path id="路径_624" data-name="路径 624" d="M391.616,247.991H379.272a.75.75,0,0,1,0-1.5h12.344a.75.75,0,0,1,0,1.5Z"/>
      <path id="路径_625" data-name="路径 625" d="M391.616,255.827a.747.747,0,0,1-.46-.158l-5.713-4.443-5.712,4.443a.75.75,0,0,1-.921-1.184l6.172-4.8a.75.75,0,0,1,.921,0l6.173,4.8a.75.75,0,0,1-.461,1.342Z"/>
    </g>
  </g>
</svg>
