<svg xmlns="http://www.w3.org/2000/svg" width="16" height="16" viewBox="0 0 16 16">
  <g id="数据量多到少" transform="translate(-191.366 -385.228)">
    <rect id="矩形_122" data-name="矩形 122" width="16" height="16" transform="translate(191.366 385.228)" fill="none"/>
    <path id="直线_1025" data-name="直线 1025" d="M0,12.462a.75.75,0,0,1-.75-.75V0A.75.75,0,0,1,0-.75.75.75,0,0,1,.75,0V11.712A.75.75,0,0,1,0,12.462Z" transform="translate(195.259 387.037)" />
    <path id="直线_1026" data-name="直线 1026" d="M7.556.75H0A.75.75,0,0,1-.75,0,.75.75,0,0,1,0-.75H7.556a.75.75,0,0,1,.75.75A.75.75,0,0,1,7.556.75Z" transform="translate(198.037 387.798)" />
    <path id="直线_1027" data-name="直线 1027" d="M5.4.75H0A.75.75,0,0,1-.75,0,.75.75,0,0,1,0-.75H5.4a.75.75,0,0,1,.75.75A.75.75,0,0,1,5.4.75Z" transform="translate(198.037 390.208)" />
    <path id="直线_1028" data-name="直线 1028" d="M3.66.75H0A.75.75,0,0,1-.75,0,.75.75,0,0,1,0-.75H3.66A.75.75,0,0,1,4.41,0,.75.75,0,0,1,3.66.75Z" transform="translate(198.037 392.618)" />
    <path id="直线_1029" data-name="直线 1029" d="M1.83.75H0A.75.75,0,0,1-.75,0,.75.75,0,0,1,0-.75H1.83A.75.75,0,0,1,2.58,0,.75.75,0,0,1,1.83.75Z" transform="translate(198.037 395.027)" />
    <path id="路径_787" data-name="路径 787" d="M195.254,400.2a.75.75,0,0,1-.53-.22l-2.058-2.058a.75.75,0,0,1,1.061-1.061l1.528,1.528,1.539-1.539a.75.75,0,0,1,1.061,1.061l-2.069,2.069A.75.75,0,0,1,195.254,400.2Z" />
  </g>
</svg>
