<svg xmlns="http://www.w3.org/2000/svg" width="16" height="16" viewBox="0 0 16 16">
  <g id="数据量少_多" data-name="数据量少→多" transform="translate(-212.737 -385.228)">
    <rect id="矩形_122" data-name="矩形 122" width="16" height="16" transform="translate(212.737 385.228)" fill="none"/>
    <path id="直线_1030" data-name="直线 1030" d="M0,12.462a.75.75,0,0,1-.75-.75V0A.75.75,0,0,1,0-.75.75.75,0,0,1,.75,0V11.712A.75.75,0,0,1,0,12.462Z" transform="translate(216.63 387.037)" />
    <path id="直线_1031" data-name="直线 1031" d="M7.556.75H0A.75.75,0,0,1-.75,0,.75.75,0,0,1,0-.75H7.556a.75.75,0,0,1,.75.75A.75.75,0,0,1,7.556.75Z" transform="translate(219.408 395.027)" />
    <path id="直线_1032" data-name="直线 1032" d="M5.4.75H0A.75.75,0,0,1-.75,0,.75.75,0,0,1,0-.75H5.4a.75.75,0,0,1,.75.75A.75.75,0,0,1,5.4.75Z" transform="translate(219.408 392.617)" />
    <path id="直线_1033" data-name="直线 1033" d="M3.66.75H0A.75.75,0,0,1-.75,0,.75.75,0,0,1,0-.75H3.66A.75.75,0,0,1,4.41,0,.75.75,0,0,1,3.66.75Z" transform="translate(219.408 390.207)" />
    <path id="直线_1034" data-name="直线 1034" d="M1.83.75H0A.75.75,0,0,1-.75,0,.75.75,0,0,1,0-.75H1.83A.75.75,0,0,1,2.58,0,.75.75,0,0,1,1.83.75Z" transform="translate(219.408 387.798)" />
    <path id="路径_788" data-name="路径 788" d="M216.636,400.2a.75.75,0,0,1-.53-.22l-2.069-2.069a.75.75,0,0,1,1.061-1.061l1.539,1.539,1.528-1.528a.75.75,0,0,1,1.061,1.061l-2.058,2.058A.75.75,0,0,1,216.636,400.2Z" />
  </g>
</svg>
