<svg xmlns="http://www.w3.org/2000/svg" width="16.106" height="16.041" viewBox="0 0 16.106 16.041">
  <g id="表解析" transform="translate(-469.217 -65.49)">
    <rect id="矩形_122" data-name="矩形 122" width="16" height="16" rx="2" transform="translate(469.323 65.531)" fill="none"/>
    <path id="椭圆_207" data-name="椭圆 207" d="M2-.75A2.75,2.75,0,1,1-.75,2,2.753,2.753,0,0,1,2-.75Zm0,4A1.25,1.25,0,1,0,.75,2,1.251,1.251,0,0,0,2,3.25Z" transform="translate(469.967 73.079)"/>
    <path id="椭圆_208" data-name="椭圆 208" d="M2-.75A2.75,2.75,0,1,1-.75,2,2.753,2.753,0,0,1,2-.75Zm0,4A1.25,1.25,0,1,0,.75,2,1.251,1.251,0,0,0,2,3.25Z" transform="translate(480.544 66.24)"/>
    <path id="椭圆_209" data-name="椭圆 209" d="M2-.75A2.75,2.75,0,1,1-.75,2,2.753,2.753,0,0,1,2-.75Zm0,4A1.25,1.25,0,1,0,.75,2,1.251,1.251,0,0,0,2,3.25Z" transform="translate(480.544 76.652)"/>
    <path id="直线_968" data-name="直线 968" d="M5.781,2.771a.749.749,0,0,1-.248-.042L-.247.708a.75.75,0,0,1-.46-.955.75.75,0,0,1,.955-.46L6.029,1.313a.75.75,0,0,1-.247,1.458Z" transform="translate(474.426 75.824)"/>
    <path id="直线_969" data-name="直线 969" d="M0,5.149A.749.749,0,0,1-.636,4.8.75.75,0,0,1-.4,3.762l7.054-4.4A.75.75,0,0,1,7.69-.4.75.75,0,0,1,7.451.636L.4,5.035A.747.747,0,0,1,0,5.149Z" transform="translate(473.843 69.37)"/>
  </g>
</svg>
