<?xml version="1.0" encoding="UTF-8"?>
<svg id="_图层_1" data-name="图层 1" xmlns="http://www.w3.org/2000/svg" version="1.1" viewBox="0 0 16 16">
  <defs>
    <style>
      .cls-1, .cls-2 {
        stroke-width: 0px;
      }

      .cls-2 {
        opacity: 0;
      }
    </style>
  </defs>
  <rect class="cls-2" width="16" height="16"/>
  <path class="cls-1" d="M8.3.3l1.7,5.4c0,.1.2.2.3.2h5.4c.3,0,.4.4.2.5l-4.4,3.4c0,0-.1.2-.1.3l1.7,5.4c0,.3-.2.5-.5.3l-4.4-3.3c-.1,0-.3,0-.4,0l-4.4,3.3c-.2.2-.6,0-.5-.3l1.7-5.4c0-.1,0-.3-.1-.3L.2,6.4c-.2-.2-.1-.5.2-.5h5.4c.1,0,.2,0,.3-.2L7.7.3C7.8,0,8.2,0,8.3.3Z"/>
</svg>
