<?xml version="1.0" encoding="UTF-8"?>
<svg id="_图层_1" data-name="图层 1" xmlns="http://www.w3.org/2000/svg" version="1.1" viewBox="0 0 16 16">
  <defs>
    <style>
      .cls-1, .cls-2 {
        stroke-width: 0px;
      }

      .cls-2 {
        opacity: 0;
      }
    </style>
  </defs>
  <rect class="cls-2" width="16" height="16"/>
  <path class="cls-1" d="M3.7,16c-.2,0-.4,0-.6-.2-.4-.3-.5-.7-.4-1.2l1.4-4.6L.4,7.2c-.4-.3-.5-.7-.4-1.2s.5-.7,1-.7h4.6L7,.7c.1-.4.5-.7,1-.7h0c.5,0,.9.3,1,.7l1.4,4.5h4.6c.5,0,.8.3,1,.7.1.4,0,.9-.4,1.2l-3.7,2.8,1.4,4.6c.1.4,0,.9-.4,1.2-.4.3-.9.2-1.2,0l-3.6-2.8-3.6,2.8c-.2.1-.4.2-.6.2ZM3.4,14.6h0,0ZM12.6,14.5h0s0,0,0,0ZM8,11.3c.2,0,.4,0,.6.2l2.8,2.1-1.1-3.5c-.1-.4,0-.9.4-1.1l2.9-2.2h-3.6c-.5,0-.9-.3-1-.7l-1.1-3.5-1.1,3.5c-.1.4-.5.7-1,.7h-3.6l2.9,2.2c.3.3.5.7.4,1.1l-1.1,3.5,2.8-2.1c.2-.1.4-.2.6-.2ZM4.4,10.2s0,0,0,0h0ZM15,6.8h0,0ZM7.6,1.2s0,0,0,0h0Z"/>
</svg>
