<svg id="Success_强" xmlns="http://www.w3.org/2000/svg" width="20" height="20" viewBox="0 0 20 20">
  <path id="路径" d="M9,0A9,9,0,1,1,0,9,9,9,0,0,1,9,0Z" transform="translate(1 1)" />
  <g id="Group_2711" data-name="Group 2711" transform="translate(5.57 6.757)">
    <path id="矩形" d="M.627,0h.625a.625.625,0,0,1,.625.625h0l0,6.5a.626.626,0,0,1-.625.625H0L0,.625A.626.626,0,0,1,.627,0Z" transform="translate(7 0) rotate(40)" fill="#fff"/>
    <path id="矩形备份_3" data-name="矩形备份 3" d="M.625,0h.627a.625.625,0,0,1,.625.611l.087,3.878-1.25.05a.625.625,0,0,1-.649-.6s0-.009,0-.013L0,.637A.625.625,0,0,1,.613,0Z" transform="translate(0 4.171) rotate(-48)" fill="#fff"/>
  </g>
</svg>
