<?xml version="1.0" encoding="UTF-8"?>
<svg id="_图层_1" data-name="图层 1" xmlns="http://www.w3.org/2000/svg" viewBox="0 0 18 18">
  <defs>
    <style>
      .cls-1, .cls-2 {
        stroke-width: 0px;
      }

      .cls-2 {
        fill: #fff;
        opacity: 0;
      }
    </style>
  </defs>
  <rect class="cls-2" width="18" height="18"/>
  <path class="cls-1" d="M15.85358,4.8941l-2.1601-2.16003c-.19525-.19525-.51184-.19525-.70709,0s-.19525.51184,0,.70709l1.32343,1.32349H6.24707c-2.32812,0-4.22217,1.89404-4.22217,4.22266,0,.27637.22363.5.5.5s.5-.22363.5-.5c0-1.77686,1.44531-3.22266,3.22217-3.22266h8.06323l-1.32391,1.32391c-.19525.19525-.19525.51184,0,.70709.19525.19531.51184.19531.70709,0l2.1601-2.16003c.10211-.10211.14777-.237.14307-.37073.0047-.13373-.04095-.26868-.14307-.37079Z"/>
  <path class="cls-1" d="M15.47461,8.5127c-.27637,0-.5.22363-.5.5,0,1.77734-1.44531,3.22266-3.22168,3.22266l-8.06146-.00177,1.32214-1.3222c.19525-.19525.19525-.51184,0-.70709s-.51184-.19525-.70709,0l-2.1601,2.1601c-.10211.10211-.14777.237-.14307.37073-.0047.13373.04095.26862.14307.37073l2.1601,2.1601c.19525.19525.51184.19525.70709,0,.19525-.19531.19525-.51184,0-.70715l-1.3252-1.3252,8.06451.00177c2.32812,0,4.22168-1.89453,4.22168-4.22266,0-.27637-.22363-.5-.5-.5Z"/>
</svg>
