<svg xmlns="http://www.w3.org/2000/svg" width="28" height="28" viewBox="0 0 28 28">
  <g id="系统管理" transform="translate(-1530.002 -248.125)">
    <rect id="矩形_122" data-name="矩形 122" width="28" height="28" rx="2" transform="translate(1530.002 248.125)" fill="none"/>
    <g id="系统设置" transform="translate(497.977 133.525)">
      <path id="路径_563" data-name="路径 563" d="M1046.016,137.573a8.988,8.988,0,0,1-4.266-1.076.75.75,0,0,1-.31-1,1.716,1.716,0,0,0-2.31-2.31.75.75,0,0,1-1-.31,8.982,8.982,0,0,1-1.075-4.436.75.75,0,0,1,.687-.733,1.713,1.713,0,0,0,1.066-2.919,1.658,1.658,0,0,0-.125-.113.75.75,0,0,1-.152-1,9.046,9.046,0,0,1,3.339-3.013.75.75,0,0,1,.892.149l.016.017a1.715,1.715,0,0,0,2.829-.667.75.75,0,0,1,.71-.508h.028a8.993,8.993,0,0,1,4.086,1.155.75.75,0,0,1,.344.885,1.713,1.713,0,0,0,2.159,2.159.75.75,0,0,1,.885.344,8.993,8.993,0,0,1,1.155,4.086.75.75,0,0,1-.507.737,1.715,1.715,0,0,0-.667,2.829l.017.016a.75.75,0,0,1,.149.892,9.047,9.047,0,0,1-3.014,3.338.75.75,0,0,1-1-.152,1.609,1.609,0,0,0-.112-.123,1.713,1.713,0,0,0-2.919,1.066.75.75,0,0,1-.733.687Zm-2.973-2.114a7.5,7.5,0,0,0,2.521.6,3.214,3.214,0,0,1,5.04-1.564,7.557,7.557,0,0,0,1.784-2,3.218,3.218,0,0,1,1.049-4.653,7.505,7.505,0,0,0-.677-2.425,3.226,3.226,0,0,1-.359.02,3.215,3.215,0,0,1-3.193-3.573,7.5,7.5,0,0,0-2.424-.677,3.217,3.217,0,0,1-4.654,1.05,7.561,7.561,0,0,0-2,1.784,3.213,3.213,0,0,1-1.563,5.039,7.487,7.487,0,0,0,.6,2.522,3.229,3.229,0,0,1,.75-.089,3.216,3.216,0,0,1,3.127,3.964Z" transform="translate(0)" />
      <path id="路径_564" data-name="路径 564" d="M1044.732,130.954a3.624,3.624,0,1,1,2.563-1.062A3.6,3.6,0,0,1,1044.732,130.954Zm0-5.749a2.124,2.124,0,1,0,1.5.622A2.11,2.11,0,0,0,1044.732,125.205Z" transform="translate(1.282 1.28)" />
    </g>
  </g>
</svg>
