<svg xmlns="http://www.w3.org/2000/svg" width="18" height="18" viewBox="0 0 18 18">
  <g id="保存" transform="translate(-271.625 -184.806)">
    <rect id="矩形_122" data-name="矩形 122" width="18" height="18" transform="translate(271.625 184.806)" fill="none"/>
    <rect id="矩形_123" data-name="矩形 123" width="14" height="14" transform="translate(273.625 186.806)" fill="none"/>
    <path id="矩形_967" data-name="矩形 967" d="M0-.5H3.81a.5.5,0,0,1,.5.5V2.481a.5.5,0,0,1-.5.5H0a.5.5,0,0,1-.5-.5V0A.5.5,0,0,1,0-.5ZM3.31.5H.5V1.981H3.31Z" transform="translate(276.815 187.333)" />
    <path id="直线_612" data-name="直线 612" d="M7.185.5H0A.5.5,0,0,1-.5,0,.5.5,0,0,1,0-.5H7.185a.5.5,0,0,1,.5.5A.5.5,0,0,1,7.185.5Z" transform="translate(276.815 194.444)" />
    <path id="直线_613" data-name="直线 613" d="M7.185.5H0A.5.5,0,0,1-.5,0,.5.5,0,0,1,0-.5H7.185a.5.5,0,0,1,.5.5A.5.5,0,0,1,7.185.5Z" transform="translate(276.815 197.407)" />
    <path id="路径_558" data-name="路径 558" d="M274.148,186.833H284.37a.5.5,0,0,1,.341.135l2.963,2.769a.5.5,0,0,1,.159.365v10.231a.5.5,0,0,1-.5.5H274.148a.5.5,0,0,1-.5-.5v-13A.5.5,0,0,1,274.148,186.833Zm10.025,1h-9.525v12h12.185v-9.514Z" />
  </g>
</svg>
