<svg xmlns="http://www.w3.org/2000/svg" width="18" height="18" viewBox="0 0 18 18">
  <g id="预设模板" transform="translate(-271.625 -184.806)">
    <rect id="矩形_122" data-name="矩形 122" width="18" height="18" transform="translate(271.625 184.806)" fill="none"/>
    <rect id="矩形_123" data-name="矩形 123" width="14" height="14" transform="translate(273.625 186.806)" fill="none"/>
    <path id="矩形_967" data-name="矩形 967" d="M0-.5H12.81a.5.5,0,0,1,.5.5V4.481a.5.5,0,0,1-.5.5H0a.5.5,0,0,1-.5-.5V0A.5.5,0,0,1,0-.5ZM12.31.5H.5V3.981H12.31Z" transform="translate(274.22 187.065)" />
    <path id="矩形_980" data-name="矩形 980" d="M0-.5H5.81a.5.5,0,0,1,.5.5V2.481a.5.5,0,0,1-.5.5H0a.5.5,0,0,1-.5-.5V0A.5.5,0,0,1,0-.5ZM5.31.5H.5V1.981H5.31Z" transform="translate(274.22 193.537)" />
    <path id="矩形_982" data-name="矩形 982" d="M0-.5H4.81a.5.5,0,0,1,.5.5V7a.5.5,0,0,1-.5.5H0A.5.5,0,0,1-.5,7V0A.5.5,0,0,1,0-.5ZM4.31.5H.5v6H4.31Z" transform="translate(282.22 193.537)" />
    <path id="矩形_981" data-name="矩形 981" d="M0-.5H5.81a.5.5,0,0,1,.5.5V2.481a.5.5,0,0,1-.5.5H0a.5.5,0,0,1-.5-.5V0A.5.5,0,0,1,0-.5ZM5.31.5H.5V1.981H5.31Z" transform="translate(274.22 198.065)" />
  </g>
</svg>
