<svg xmlns="http://www.w3.org/2000/svg" width="18" height="18" viewBox="0 0 18 18">
  <g id="组_4181" data-name="组 4181" transform="translate(-59.429 -132.58)">
    <rect id="矩形_122" data-name="矩形 122" width="18" height="18" transform="translate(59.429 132.58)" fill="none"/>
    <path id="直线_933" data-name="直线 933" d="M12.4.75H0A.75.75,0,0,1-.75,0,.75.75,0,0,1,0-.75H12.4a.75.75,0,0,1,.75.75A.75.75,0,0,1,12.4.75Z" transform="translate(62.259 135.386)" />
    <path id="直线_934" data-name="直线 934" d="M12.4.75H0A.75.75,0,0,1-.75,0,.75.75,0,0,1,0-.75H12.4a.75.75,0,0,1,.75.75A.75.75,0,0,1,12.4.75Z" transform="translate(62.259 141.58)" />
    <path id="直线_935" data-name="直线 935" d="M12.4.75H0A.75.75,0,0,1-.75,0,.75.75,0,0,1,0-.75H12.4a.75.75,0,0,1,.75.75A.75.75,0,0,1,12.4.75Z" transform="translate(62.259 147.756)" />
  </g>
</svg>
