<svg xmlns="http://www.w3.org/2000/svg" width="18" height="18" viewBox="0 0 18 18">
  <g id="时区" transform="translate(-249.729 -180.884)">
    <rect id="矩形_122" data-name="矩形 122" width="18" height="18" transform="translate(249.729 180.884)" fill="none"/>
    <g id="组_2927" data-name="组 2927">
      <path id="路径_574" data-name="路径 574" d="M257.012,190.461a.748.748,0,0,1-.53-.22l-2.885-2.885a.75.75,0,0,1,1.061-1.061l2.355,2.355.327-.326v-.416l-.649-.648a.75.75,0,0,1,0-1.061l2.336-2.336a.75.75,0,0,1,1.061,1.061l-1.805,1.805.338.338a.75.75,0,0,1,.22.531v1.038a.75.75,0,0,1-.22.531l-1.077,1.076A.748.748,0,0,1,257.012,190.461Z" />
      <path id="路径_575" data-name="路径 575" d="M259.6,196.656a.75.75,0,0,1-.75-.75v-2.4l-.639-.639a.75.75,0,0,1,0-1.061l1.4-1.4a.75.75,0,0,1,1.06,0l.583.583h1.016a.75.75,0,0,1,.53.219l.8.8a.75.75,0,0,1,.22.531v1.45a.75.75,0,0,1-1.5,0v-1.139l-.363-.363h-1.016a.75.75,0,0,1-.53-.219l-.273-.273-.336.336.328.328a.75.75,0,0,1,.22.53v2.714A.75.75,0,0,1,259.6,196.656Z" />
      <path id="椭圆_215" data-name="椭圆 215" d="M6.272-.75A7.022,7.022,0,1,1-.75,6.272,7.03,7.03,0,0,1,6.272-.75Zm0,12.543A5.522,5.522,0,1,0,.75,6.272,5.528,5.528,0,0,0,6.272,11.793Z" transform="translate(252.457 183.596)" />
    </g>
  </g>
</svg>
