<svg xmlns="http://www.w3.org/2000/svg" width="18" height="18" viewBox="0 0 18 18">
  <g id="路径分析" transform="translate(0 0)">
    <rect id="矩形_122" data-name="矩形 122" width="18" height="18" transform="translate(0 0)" fill="none"/>
    <g id="组_322" data-name="组 322" transform="translate(2.766 2.904)">
      <path id="路径_86" data-name="路径 86" d="M209.491,191.607a.75.75,0,0,1-.53-1.28l3.665-3.666.018-.018a1.244,1.244,0,0,0-1.777-1.742l-2.362,2.36a.75.75,0,0,1-1.06-1.061l2.361-2.359a2.724,2.724,0,0,1,1.939-.8h0a2.745,2.745,0,0,1,1.942,4.684l-.024.023-3.643,3.644A.748.748,0,0,1,209.491,191.607Z" transform="translate(-204.68 -183.787)" />
      <path id="路径_87" data-name="路径 87" d="M209.244,196.713a2.742,2.742,0,0,1-1.941-4.683l3.155-3.154a.75.75,0,0,1,1.06,1.061l-3.155,3.154a1.245,1.245,0,1,0,1.761,1.76l3.492-3.493a.75.75,0,0,1,1.061,1.061l-3.493,3.494A2.741,2.741,0,0,1,209.244,196.713Z" transform="translate(-204.68 -183.787)" />
      <path id="椭圆_25" data-name="椭圆 25" d="M1.812-.75A2.562,2.562,0,1,1-.75,1.812,2.565,2.565,0,0,1,1.812-.75Zm0,3.625A1.062,1.062,0,1,0,.75,1.812,1.064,1.064,0,0,0,1.812,2.875Z" transform="translate(0 2.65)" />
      <path id="椭圆_26" data-name="椭圆 26" d="M1.812-.75A2.562,2.562,0,1,1-.75,1.812,2.565,2.565,0,0,1,1.812-.75Zm0,3.625A1.062,1.062,0,1,0,.75,1.812,1.064,1.064,0,0,0,1.812,2.875Z" transform="translate(8.844 4.931)" />
    </g>
  </g>
</svg>
