<?xml version="1.0" encoding="UTF-8"?>
<svg id="_图层_2" data-name="图层 2" xmlns="http://www.w3.org/2000/svg" width="18" height="18" viewBox="0 0 18 18">
  <defs>
    <style>
      .cls-1, .cls-2 {
        stroke-width: 0px;
      }

      .cls-2 {
        opacity: 0;
      }
    </style>
  </defs>
  <g id="_图层_1-2" data-name="图层 1">
    <rect id="_矩形_122" data-name="矩形 122" class="cls-2" width="18" height="18"/>
    <path class="cls-1" d="M14.399392,13.003551H3.563943c-.872559,0-1.58252-.709961-1.58252-1.58252V3.585582c0-.872559.709961-1.582031,1.58252-1.582031h5.436035c.276367,0,.5.223633.5.5s-.223633.5-.5.5H3.563943c-.321289,0-.58252.26123-.58252.582031v7.835449c0,.321289.26123.58252.58252.58252h10.835449c.320801,0,.582031-.26123.582031-.58252v-3.91748c0-.276367.223633-.5.5-.5s.5.223633.5.5v3.91748c0,.872559-.709473,1.58252-1.582031,1.58252Z"/>
    <rect class="cls-1" x="4" y="14.947887" width="10" height="1" rx=".5" ry=".5"/>
    <path class="cls-1" d="M14.666665,2.641918c-.013123,0-.02417.006531-.037048.007507-.012878-.000977-.023926-.007507-.037048-.007507h-3c-.276123,0-.5.223877-.5.5s.223877.5.5.5h1.815735l-4.259888,3.894836c-.10498.093262-.259277.101562-.373535.020508l-.427734-.303223c-.492676-.350098-1.154785-.316406-1.592285.068359l-2.563965,2.045898c-.21582.171875-.250977.486816-.078613.702637.098633.123535.244141.187988.391113.187988.109375,0,.219238-.035645.311523-.109375l2.581543-2.060547c.10498-.093262.257812-.100098.372559-.019531l.427246.303223c.497559.353027,1.163086.31543,1.62207-.093262l4.348328-3.975586v1.838074c0,.276123.223877.5.5.5s.5-.223877.5-.5v-3c0-.276123-.223877-.5-.5-.5Z"/>
  </g>
</svg>
