<?xml version="1.0" encoding="UTF-8"?>
<svg id="_图层_1" data-name="图层 1" xmlns="http://www.w3.org/2000/svg" version="1.1" viewBox="0 0 16 16">
  <defs>
    <style>
      .cls-1, .cls-2 {
        stroke-width: 0px;
      }

      .cls-2 {
        opacity: 0;
      }
    </style>
  </defs>
  <rect class="cls-2" width="16" height="16"/>
  <path class="cls-1" d="M7.7,15.1c-.4,0-.8,0-1.2,0-2.8-.5-5.1-2.8-5.6-5.6C.4,5.8,2.7,2.3,6.2,1.5c.4,0,.8.2.9.6,0,.4-.2.8-.6.9-2.8.6-4.6,3.3-4.1,6.2.4,2.2,2.2,4,4.3,4.4,2.8.5,5.5-1.2,6.2-4,0-.4.5-.6.9-.6.4,0,.6.5.6.9-.8,3.1-3.6,5.2-6.7,5.2Z"/>
  <path class="cls-1" d="M8.5,8.6c-.3,0-.5-.1-.7-.3-.2-.2-.3-.4-.3-.7V1.9c0-.3.1-.5.3-.7.2-.2.5-.3.7-.3,3.5.2,6.4,3,6.6,6.6,0,.3,0,.5-.3.7-.2.2-.5.3-.7.3h-5.6c0,0,0,0,0,0ZM13.6,7.5h0,0ZM9,2.5v4.6h4.6c-.3-2.4-2.2-4.3-4.6-4.6Z"/>
</svg>
