<svg xmlns="http://www.w3.org/2000/svg" width="18" height="18" viewBox="0 0 18 18">
  <g id="部门管理1" transform="translate(-150.902 -245.461)">
    <rect id="矩形_122" data-name="矩形 122" width="18" height="18" transform="translate(150.902 245.461)" fill="none"/>
    <g id="组_2788" data-name="组 2788">
      <path id="路径_565" data-name="路径 565" d="M157.992,254.967a3.4,3.4,0,1,1,3-1.8.75.75,0,1,1-1.324-.7,1.9,1.9,0,1,0-1.677,1.007h0a.75.75,0,0,1,0,1.5Z" />
      <path id="路径_566" data-name="路径 566" d="M163.138,255.518a.75.75,0,0,1-.185-1.477,1.7,1.7,0,0,0-.419-3.346.75.75,0,0,1,0-1.5,3.2,3.2,0,0,1,.791,6.3A.752.752,0,0,1,163.138,255.518Z"/>
      <path id="路径_567" data-name="路径 567" d="M153.459,259.505a.75.75,0,0,1-.75-.749,5.285,5.285,0,0,1,5.277-5.293h.009a5.285,5.285,0,0,1,5.284,5.277v.015a.75.75,0,0,1-1.5,0v-.014a3.785,3.785,0,0,0-3.785-3.778h-.006a3.785,3.785,0,0,0-3.779,3.791.75.75,0,0,1-.749.751Z" />
      <path id="路径_568" data-name="路径 568" d="M166.343,259.586a.75.75,0,0,1-.748-.7,3.75,3.75,0,0,0-2.747-3.39.75.75,0,1,1,.4-1.446,5.25,5.25,0,0,1,3.847,4.746.75.75,0,0,1-.7.794Z"/>
    </g>
  </g>
</svg>
