<svg xmlns="http://www.w3.org/2000/svg" width="18" height="18" viewBox="0 0 18 18">
  <g id="用户标签" transform="translate(0 0)">
    <rect id="矩形_122" data-name="矩形 122" width="18" height="18" transform="translate(0 0)" fill="none"/>
    <g id="用户标签-2" data-name="用户标签" transform="translate(2.963 2.962)">
      <path id="路径_91" data-name="路径 91" d="M84.592,124.1h5.84a.75.75,0,0,1,.53.22l6.235,6.235a.75.75,0,0,1,0,1.061l-5.84,5.84a.75.75,0,0,1-1.061,0l-6.235-6.235a.75.75,0,0,1-.22-.53v-5.84A.75.75,0,0,1,84.592,124.1Zm5.529,1.5H85.342v4.779l5.485,5.485,4.779-4.779Z" transform="translate(-84.592 -124.851)" />
      <path id="椭圆_35" data-name="椭圆 35" d="M1.334-.75A2.084,2.084,0,1,1-.75,1.334,2.086,2.086,0,0,1,1.334-.75Zm0,2.668A.584.584,0,1,0,.75,1.334.585.585,0,0,0,1.334,1.918Z" transform="translate(2.812 2.623)" />
      <path id="直线_63" data-name="直线 63" d="M0,3.542a.748.748,0,0,1-.53-.22.75.75,0,0,1,0-1.061L2.261-.53a.75.75,0,0,1,1.061,0,.75.75,0,0,1,0,1.061L.53,3.322A.748.748,0,0,1,0,3.542Z" transform="translate(5.978 5.927)" />
    </g>
  </g>
</svg>
