<svg xmlns="http://www.w3.org/2000/svg" width="18" height="18" viewBox="0 0 18 18">
    <g id="用户属性管理" transform="translate(0 -0.132)">
        <rect id="矩形_5" data-name="矩形 5" width="18" height="18" transform="translate(0 0.132)" fill="none"/>
        <rect id="矩形_4" data-name="矩形 4" width="14" height="14" transform="translate(2 2.132)" fill="none"/>
        <g id="组_249" data-name="组 249" transform="translate(-649.419 -343.263)">
            <g id="组_246" data-name="组 246" transform="translate(0 0.202)">
                <g id="组_245" data-name="组 245">
                    <path id="直线_26" data-name="直线 26"
                          d="M3.5.75H0A.75.75,0,0,1-.75,0,.75.75,0,0,1,0-.75H3.5A.75.75,0,0,1,4.25,0,.75.75,0,0,1,3.5.75Z"
                          transform="translate(661.419 354.181)" />
                    <path id="直线_27" data-name="直线 27"
                          d="M1.3.75H0A.75.75,0,0,1-.75,0,.75.75,0,0,1,0-.75H1.3A.75.75,0,0,1,2.05,0,.75.75,0,0,1,1.3.75Z"
                          transform="translate(657.391 354.18)" />
                    <path id="椭圆_19" data-name="椭圆 19"
                          d="M1-.5A1.5,1.5,0,1,1-.5,1,1.5,1.5,0,0,1,1-.5Zm0,2A.5.5,0,1,0,.5,1,.5.5,0,0,0,1,1.5Z"
                          transform="translate(659.046 353.181)" />
                </g>
            </g>
            <g id="组_3322" data-name="组 3322" transform="translate(657.391 356.875)">
                <g id="组_245-2" data-name="组 245" transform="translate(0 0.001)">
                    <path id="直线_26-2" data-name="直线 26"
                          d="M3.5.75H0A.75.75,0,0,1-.75,0,.75.75,0,0,1,0-.75H3.5A.75.75,0,0,1,4.25,0,.75.75,0,0,1,3.5.75Z"
                          transform="translate(0 1)" />
                    <path id="直线_27-2" data-name="直线 27"
                          d="M1.3.75H0A.75.75,0,0,1-.75,0,.75.75,0,0,1,0-.75H1.3A.75.75,0,0,1,2.05,0,.75.75,0,0,1,1.3.75Z"
                          transform="translate(6.227 0.998)" />
                    <path id="椭圆_19-2" data-name="椭圆 19"
                          d="M1-.5A1.5,1.5,0,1,1-.5,1,1.5,1.5,0,0,1,1-.5Zm0,2A.5.5,0,1,0,.5,1,.5.5,0,0,0,1,1.5Z"
                          transform="translate(3.873)" />
                </g>
            </g>
            <path id="椭圆_21" data-name="椭圆 21"
                  d="M2.988-.75A3.738,3.738,0,1,1-.75,2.988,3.743,3.743,0,0,1,2.988-.75Zm0,5.977A2.238,2.238,0,1,0,.75,2.988,2.241,2.241,0,0,0,2.988,5.227Z"
                  transform="translate(654.283 345.915)" />
            <path id="路径_22" data-name="路径 22"
                  d="M651.916,359.626a.75.75,0,0,1-.75-.75,8.764,8.764,0,0,1,1.762-5.4,5.656,5.656,0,0,1,4.461-2.337.75.75,0,0,1,0,1.5,4.192,4.192,0,0,0-3.28,1.761,7.261,7.261,0,0,0-1.443,4.474A.75.75,0,0,1,651.916,359.626Z"
                  />
        </g>
    </g>
</svg>
