<svg xmlns="http://www.w3.org/2000/svg" width="18" height="18" viewBox="0 0 18 18">
  <g id="用户细查" transform="translate(0.001 -0.001)">
    <rect id="矩形_122" data-name="矩形 122" width="18" height="18" transform="translate(-0.001 0.001)" fill="none"/>
    <g id="用户细查-2" data-name="用户细查" transform="translate(2.778 2.808)">
      <path id="路径_506" data-name="路径 506" d="M112.109,137.891H106.63a.75.75,0,0,1-.75-.75V124.7a.75.75,0,0,1,.75-.75h10.486a.75.75,0,0,1,.75.75v4.362a.75.75,0,0,1-1.5,0v-3.612H107.38v10.945h4.729a.75.75,0,0,1,0,1.5Z" transform="translate(-106.63 -124.696)" />
      <path id="直线_537" data-name="直线 537" d="M5.935.75H0A.75.75,0,0,1-.75,0,.75.75,0,0,1,0-.75H5.935a.75.75,0,0,1,.75.75A.75.75,0,0,1,5.935.75Z" transform="translate(2.276 3.259)" />
      <path id="直线_538" data-name="直线 538" d="M2.72.75H0A.75.75,0,0,1-.75,0,.75.75,0,0,1,0-.75H2.72A.75.75,0,0,1,3.47,0,.75.75,0,0,1,2.72.75Z" transform="translate(2.276 6.223)" />
      <path id="椭圆_108" data-name="椭圆 108" d="M2.169-.75A2.919,2.919,0,1,1-.75,2.169,2.922,2.922,0,0,1,2.169-.75Zm0,4.338A1.419,1.419,0,1,0,.75,2.169,1.421,1.421,0,0,0,2.169,3.588Z" transform="translate(6.662 6.663)" />
      <path id="直线_539" data-name="直线 539" d="M1.958,2.708a.748.748,0,0,1-.53-.22L-.53.53A.75.75,0,0,1-.53-.53.75.75,0,0,1,.53-.53L2.488,1.428a.75.75,0,0,1-.53,1.28Z" transform="translate(10.486 10.487)" />
    </g>
  </g>
</svg>
