<svg xmlns="http://www.w3.org/2000/svg" width="18" height="18" viewBox="0 0 18 18">
  <g id="用户分群" transform="translate(0 0)">
    <rect id="矩形_122" data-name="矩形 122" width="18" height="18" transform="translate(0 0)" fill="none"/>
    <g id="组_328" data-name="组 328" transform="translate(2.823 2.776)">
      <path id="椭圆_34" data-name="椭圆 34" d="M2.869-.75A3.619,3.619,0,1,1-.75,2.869,3.623,3.623,0,0,1,2.869-.75Zm0,5.738A2.119,2.119,0,1,0,.75,2.869,2.121,2.121,0,0,0,2.869,4.988Z" transform="translate(2.272)" />
      <path id="路径_90" data-name="路径 90" d="M61.7,137.861a.75.75,0,0,1-.75-.75,8.6,8.6,0,0,1,1.635-5.193,5.324,5.324,0,0,1,4.256-2.264.75.75,0,0,1,0,1.5,3.862,3.862,0,0,0-3.061,1.671,7.1,7.1,0,0,0-1.33,4.286A.75.75,0,0,1,61.7,137.861Z" transform="translate(-61.704 -124.665)" />
      <path id="直线_60" data-name="直线 60" d="M0,7.06a.75.75,0,0,1-.75-.75V0A.75.75,0,0,1,0-.75.75.75,0,0,1,.75,0V6.31A.75.75,0,0,1,0,7.06Z" transform="translate(9.473 6.135)" />
      <path id="直线_61" data-name="直线 61" d="M0,4.56a.75.75,0,0,1-.75-.75V0A.75.75,0,0,1,0-.75.75.75,0,0,1,.75,0V3.81A.75.75,0,0,1,0,4.56Z" transform="translate(12.353 8.636)" />
      <path id="直线_62" data-name="直线 62" d="M0,5.4a.75.75,0,0,1-.75-.75V0A.75.75,0,0,1,0-.75.75.75,0,0,1,.75,0V4.652A.75.75,0,0,1,0,5.4Z" transform="translate(6.592 7.794)" />
    </g>
  </g>
</svg>
