<svg xmlns="http://www.w3.org/2000/svg" width="18" height="18" viewBox="0 0 18 18">
  <g id="版本更新" transform="translate(-396.142 -73.669)">
    <rect id="矩形_122" data-name="矩形 122" width="18" height="18" transform="translate(396.142 73.669)" fill="none"/>
    <path id="椭圆_159" data-name="椭圆 159" d="M6.894-.75A7.644,7.644,0,1,1-.75,6.894,7.652,7.652,0,0,1,6.894-.75Zm0,13.787A6.144,6.144,0,1,0,.75,6.894,6.151,6.151,0,0,0,6.894,13.037Z" transform="translate(398.248 76.215)" />
    <path id="路径_630" data-name="路径 630" d="M408.655,83.9a.749.749,0,0,1-.59-.286l-2.682-3.406L402.7,83.618a.75.75,0,0,1-1.178-.928l3.272-4.154a.75.75,0,0,1,1.178,0l3.272,4.154a.75.75,0,0,1-.589,1.214Z" transform="translate(-0.214 0.243)" />
    <path id="直线_783" data-name="直线 783" d="M0,7.888a.75.75,0,0,1-.75-.75V0A.75.75,0,0,1,0-.75.75.75,0,0,1,.75,0V7.138A.75.75,0,0,1,0,7.888Z" transform="translate(405.143 79.481)" />
  </g>
</svg>
