<svg xmlns="http://www.w3.org/2000/svg" width="16" height="16" viewBox="0 0 16 16">
  <g id="可见" transform="translate(-526.164 -247.019)">
    <rect id="矩形_122" data-name="矩形 122" width="16" height="16" rx="2" transform="translate(526.164 247.019)" fill="none"/>
    <path id="路径_761" data-name="路径 761" d="M534.159,259.667a7.386,7.386,0,0,1-6.967-4.3.75.75,0,0,1,0-.557,7.8,7.8,0,0,1,13.945,0,.75.75,0,0,1,0,.557A7.4,7.4,0,0,1,534.159,259.667Zm-5.452-4.577a6.377,6.377,0,0,0,10.914,0,6.368,6.368,0,0,0-10.914,0Z"/>
    <path id="椭圆_212" data-name="椭圆 212" d="M1.984-.75A2.734,2.734,0,1,1-.75,1.984,2.737,2.737,0,0,1,1.984-.75Zm0,3.969A1.234,1.234,0,1,0,.75,1.984,1.236,1.236,0,0,0,1.984,3.219Z" transform="translate(532.332 253.149)"/>
  </g>
</svg>
