<svg xmlns="http://www.w3.org/2000/svg" width="16" height="16" viewBox="0 0 16 16">
  <g id="可视化图表" transform="translate(-500.092 -247.019)">
    <rect id="矩形_122" data-name="矩形 122" width="16" height="16" rx="2" transform="translate(500.092 247.019)" fill="none"/>
    <path id="矩形_1267" data-name="矩形 1267" d="M0-.75H12.481a.75.75,0,0,1,.75.75V10.167a.75.75,0,0,1-.75.75H0a.75.75,0,0,1-.75-.75V0A.75.75,0,0,1,0-.75ZM11.731.75H.75V9.417H11.731Z" transform="translate(501.852 248.796)"/>
    <path id="直线_981" data-name="直线 981" d="M8.37.75H0A.75.75,0,0,1-.75,0,.75.75,0,0,1,0-.75H8.37A.75.75,0,0,1,9.12,0,.75.75,0,0,1,8.37.75Z" transform="translate(503.906 261.444)"/>
    <path id="路径_760" data-name="路径 760" d="M504.519,255.884a.75.75,0,0,1-.53-1.28l1.919-1.919a.75.75,0,0,1,1.061,0l1.218,1.218,2.831-2.831a.75.75,0,0,1,1.061,1.061l-3.361,3.361a.75.75,0,0,1-1.061,0l-1.218-1.218-1.388,1.388A.748.748,0,0,1,504.519,255.884Z"/>
  </g>
</svg>
