<svg xmlns="http://www.w3.org/2000/svg" width="16" height="16" viewBox="0 0 16 16">
  <g id="不可见" transform="translate(-551.127 -247.019)">
    <rect id="矩形_122" data-name="矩形 122" width="16" height="16" rx="2" transform="translate(551.127 247.019)" fill="none"/>
    <path id="路径_762" data-name="路径 762" d="M554.275,257.868a.747.747,0,0,1-.506-.2,6.269,6.269,0,0,1-1.614-2.3.75.75,0,0,1,0-.557,7.389,7.389,0,0,1,6.967-4.307,8.678,8.678,0,0,1,.913.048.75.75,0,0,1-.158,1.492,7.173,7.173,0,0,0-.755-.04,5.966,5.966,0,0,0-5.452,3.086,4.856,4.856,0,0,0,1.112,1.475.75.75,0,0,1-.507,1.3Z"/>
    <path id="路径_763" data-name="路径 763" d="M559.122,259.667c-.277,0-.555-.013-.825-.039a.75.75,0,1,1,.145-1.493c.222.022.45.032.68.032a5.975,5.975,0,0,0,5.462-3.077,4.843,4.843,0,0,0-1.029-1.4.75.75,0,0,1,1.036-1.085,6.262,6.262,0,0,1,1.508,2.2.75.75,0,0,1,0,.557A7.4,7.4,0,0,1,559.122,259.667Z"/>
    <path id="路径_765" data-name="路径 765" d="M560.035,257.718a.75.75,0,0,1-.287-1.443,1.236,1.236,0,0,0,.63-.582.75.75,0,1,1,1.337.68,2.737,2.737,0,0,1-1.394,1.288A.748.748,0,0,1,560.035,257.718Z"/>
    <path id="路径_766" data-name="路径 766" d="M557.875,257.287a.748.748,0,0,1-.53-.22,2.735,2.735,0,0,1,3.867-3.868.75.75,0,0,1-1.061,1.061,1.234,1.234,0,0,0-1.745,1.746.75.75,0,0,1-.53,1.28Z"/>
    <path id="直线_982" data-name="直线 982" d="M0,11.667a.748.748,0,0,1-.53-.22.75.75,0,0,1,0-1.061L10.386-.53a.75.75,0,0,1,1.061,0,.75.75,0,0,1,0,1.061L.53,11.447A.748.748,0,0,1,0,11.667Z" transform="translate(553.799 249.697)"/>
  </g>
</svg>
