<svg xmlns="http://www.w3.org/2000/svg" width="18" height="18" viewBox="0 0 18 18">
  <g id="预警管理11" transform="translate(0 -0.132)">
    <rect id="矩形_5" data-name="矩形 5" width="18" height="18" transform="translate(0 0.132)" fill="none"/>
    <g id="组_441" data-name="组 441" transform="translate(-73.513 -159.424)">
      <path id="矩形_123" data-name="矩形 123" d="M77.054,161.343H87.972a1.756,1.756,0,0,1,1.754,1.754v10.917a1.756,1.756,0,0,1-1.754,1.755H77.054a1.756,1.756,0,0,1-1.754-1.755V163.1A1.756,1.756,0,0,1,77.054,161.343Zm10.918,12.926a.255.255,0,0,0,.254-.255V163.1a.254.254,0,0,0-.254-.254H77.054a.254.254,0,0,0-.254.254v10.917a.255.255,0,0,0,.254.255Z" />
      <path id="直线_1-2" data-name="直线 1-2" d="M6.963.75H0A.75.75,0,0,1-.75,0,.75.75,0,0,1,0-.75H6.963a.75.75,0,0,1,.75.75A.75.75,0,0,1,6.963.75Z" transform="translate(79.051 165.057)" />
      <path id="路径_131" data-name="路径 131" d="M81.709,172.059a.75.75,0,0,1-.617-1.176l.828-1.2H80.809a.75.75,0,0,1-.632-1.154l1.571-2.458a.75.75,0,0,1,1.264.808l-.834,1.3h1.171a.75.75,0,0,1,.617,1.176l-1.639,2.377A.749.749,0,0,1,81.709,172.059Z" transform="translate(0.434 1.183)" />
    </g>
  </g>
</svg>
