<svg xmlns="http://www.w3.org/2000/svg" width="16" height="16" viewBox="0 0 16 16">
  <g id="组_5160" data-name="组 5160" transform="translate(-127.531 -246.461)">
    <rect id="矩形_122" data-name="矩形 122" width="16" height="16" transform="translate(127.531 246.461)" fill="none"/>
    <path id="直线_908" data-name="直线 908" d="M0,4.046A.75.75,0,0,1-.75,3.3V0A.75.75,0,0,1,0-.75.75.75,0,0,1,.75,0V3.3A.75.75,0,0,1,0,4.046Z" transform="translate(134.789 251.591)"/>
    <path id="直线_909" data-name="直线 909" d="M2.75.75H0A.75.75,0,0,1-.75,0,.75.75,0,0,1,0-.75H2.75A.75.75,0,0,1,3.5,0,.75.75,0,0,1,2.75.75Z" transform="translate(134.789 254.888)"/>
    <path id="路径_715" data-name="路径 715" d="M135.081,261.027a6.594,6.594,0,1,1,3.4-12.245.75.75,0,0,1-.775,1.285,5.095,5.095,0,1,0,2.469,4.367.75.75,0,1,1,1.5,0A6.6,6.6,0,0,1,135.081,261.027Z"/>
    <path id="路径_714" data-name="路径 714" d="M140.671,252.039l-1.217,2.108a.293.293,0,0,0,.254.439h2.434a.293.293,0,0,0,.254-.439l-1.217-2.108A.293.293,0,0,0,140.671,252.039Z"/>
  </g>
</svg>
