<svg xmlns="http://www.w3.org/2000/svg" width="14.516" height="14.516" viewBox="0 0 14.516 14.516">
  <g id="感叹号提示" transform="translate(0.258 0.257)">
    <path id="矩形_123" data-name="矩形 123" d="M151.889,102.124h14v14h-14Z" transform="translate(-151.889 -102.124)" fill="none"/>
    <path id="椭圆_76" data-name="椭圆 76" d="M6.508-.75A7.258,7.258,0,1,1-.75,6.508,7.266,7.266,0,0,1,6.508-.75Zm0,13.016A5.758,5.758,0,1,0,.75,6.508,5.764,5.764,0,0,0,6.508,12.266Z" transform="translate(0.492 0.493)"/>
    <path id="直线_395" data-name="直线 395" d="M0,6.085a.75.75,0,0,1-.75-.75V0A.75.75,0,0,1,0-.75.75.75,0,0,1,.75,0V5.335A.75.75,0,0,1,0,6.085Z" transform="translate(7 3.165)"/>
    <path id="路径_833" data-name="路径 833" d="M7.224,11.422a.953.953,0,1,0-.954-.953A.953.953,0,0,0,7.224,11.422Z" transform="translate(-0.224 0.184)" fill-rule="evenodd"/>
  </g>
</svg>
